G04 EAGLE Gerber RS-274X export*
G75*
%MOMM*%
%FSLAX34Y34*%
%LPD*%
%INTop Copper*%
%IPPOS*%
%AMOC8*
5,1,8,0,0,1.08239X$1,22.5*%
G01*
%ADD10C,0.050000*%
%ADD11R,0.240000X0.600000*%
%ADD12R,0.600000X0.240000*%
%ADD13C,0.040000*%
%ADD14C,0.152400*%
%ADD15C,0.500000*%
%ADD16C,0.604800*%
%ADD17C,0.300000*%
%ADD18C,2.000000*%
%ADD19C,0.200000*%
%ADD20C,1.275000*%

G36*
X252015Y189810D02*
X252015Y189810D01*
X252128Y189809D01*
X252155Y189816D01*
X252183Y189818D01*
X252290Y189854D01*
X252400Y189884D01*
X252424Y189899D01*
X252450Y189908D01*
X252543Y189973D01*
X252640Y190032D01*
X252659Y190053D01*
X252682Y190069D01*
X252753Y190157D01*
X252829Y190242D01*
X252841Y190267D01*
X252859Y190289D01*
X252902Y190394D01*
X252952Y190495D01*
X252956Y190522D01*
X252967Y190549D01*
X252980Y190675D01*
X252999Y190800D01*
X252999Y247000D01*
X252994Y247038D01*
X252997Y247071D01*
X252691Y251341D01*
X252675Y251417D01*
X252671Y251482D01*
X251761Y255664D01*
X251734Y255737D01*
X251721Y255801D01*
X250225Y259812D01*
X250188Y259880D01*
X250166Y259941D01*
X248115Y263698D01*
X248068Y263760D01*
X248038Y263818D01*
X245472Y267245D01*
X245418Y267300D01*
X245379Y267352D01*
X242352Y270379D01*
X242290Y270426D01*
X242245Y270472D01*
X238818Y273038D01*
X238750Y273075D01*
X238698Y273115D01*
X234941Y275166D01*
X234869Y275193D01*
X234812Y275225D01*
X230801Y276721D01*
X230725Y276738D01*
X230664Y276761D01*
X226482Y277671D01*
X226404Y277677D01*
X226341Y277691D01*
X222071Y277997D01*
X222033Y277994D01*
X222000Y277999D01*
X154000Y277999D01*
X153936Y277990D01*
X153872Y277991D01*
X153797Y277970D01*
X153721Y277959D01*
X153662Y277933D01*
X153600Y277916D01*
X153534Y277875D01*
X153464Y277843D01*
X153415Y277801D01*
X153360Y277768D01*
X153308Y277710D01*
X153250Y277660D01*
X153214Y277606D01*
X153171Y277558D01*
X153138Y277489D01*
X153095Y277424D01*
X153076Y277362D01*
X153048Y277305D01*
X153037Y277235D01*
X153013Y277154D01*
X153012Y277069D01*
X153001Y277000D01*
X153001Y264500D01*
X153010Y264436D01*
X153009Y264372D01*
X153030Y264297D01*
X153041Y264221D01*
X153067Y264162D01*
X153084Y264100D01*
X153125Y264034D01*
X153157Y263964D01*
X153199Y263915D01*
X153232Y263860D01*
X153290Y263808D01*
X153340Y263750D01*
X153394Y263714D01*
X153442Y263671D01*
X153511Y263638D01*
X153576Y263595D01*
X153638Y263576D01*
X153695Y263548D01*
X153765Y263537D01*
X153846Y263513D01*
X153931Y263512D01*
X154000Y263501D01*
X178272Y263501D01*
X186440Y263042D01*
X194477Y261676D01*
X202311Y259420D01*
X209843Y256300D01*
X216978Y252356D01*
X223627Y247639D01*
X229706Y242206D01*
X235139Y236127D01*
X239856Y229478D01*
X243800Y222343D01*
X246920Y214811D01*
X249176Y206977D01*
X250542Y198940D01*
X251002Y190744D01*
X251025Y190633D01*
X251041Y190521D01*
X251052Y190495D01*
X251058Y190467D01*
X251110Y190367D01*
X251157Y190264D01*
X251175Y190242D01*
X251188Y190217D01*
X251267Y190136D01*
X251340Y190050D01*
X251364Y190034D01*
X251383Y190014D01*
X251481Y189957D01*
X251576Y189895D01*
X251603Y189887D01*
X251628Y189873D01*
X251738Y189846D01*
X251846Y189813D01*
X251874Y189812D01*
X251901Y189806D01*
X252015Y189810D01*
G37*
G36*
X4100Y189809D02*
X4100Y189809D01*
X4128Y189809D01*
X4237Y189839D01*
X4348Y189863D01*
X4373Y189877D01*
X4400Y189884D01*
X4496Y189944D01*
X4596Y189998D01*
X4616Y190018D01*
X4640Y190032D01*
X4716Y190116D01*
X4796Y190196D01*
X4810Y190221D01*
X4829Y190242D01*
X4878Y190344D01*
X4933Y190443D01*
X4939Y190469D01*
X4952Y190495D01*
X4971Y190620D01*
X4998Y190744D01*
X5458Y198940D01*
X6824Y206977D01*
X9080Y214811D01*
X12200Y222343D01*
X16144Y229478D01*
X20861Y236127D01*
X26294Y242206D01*
X32373Y247639D01*
X39022Y252356D01*
X46157Y256300D01*
X53689Y259420D01*
X54968Y259788D01*
X61523Y261676D01*
X69560Y263042D01*
X77728Y263501D01*
X102000Y263501D01*
X102064Y263510D01*
X102128Y263509D01*
X102203Y263530D01*
X102279Y263541D01*
X102338Y263567D01*
X102400Y263584D01*
X102466Y263625D01*
X102536Y263657D01*
X102585Y263699D01*
X102640Y263732D01*
X102692Y263790D01*
X102750Y263840D01*
X102786Y263894D01*
X102829Y263942D01*
X102862Y264011D01*
X102905Y264076D01*
X102924Y264138D01*
X102952Y264195D01*
X102963Y264265D01*
X102987Y264346D01*
X102988Y264431D01*
X102999Y264500D01*
X102999Y277000D01*
X102990Y277064D01*
X102991Y277128D01*
X102970Y277203D01*
X102959Y277279D01*
X102933Y277338D01*
X102916Y277400D01*
X102875Y277466D01*
X102843Y277536D01*
X102801Y277585D01*
X102768Y277640D01*
X102710Y277692D01*
X102660Y277750D01*
X102606Y277786D01*
X102558Y277829D01*
X102489Y277862D01*
X102424Y277905D01*
X102362Y277924D01*
X102305Y277952D01*
X102235Y277963D01*
X102154Y277987D01*
X102069Y277988D01*
X102000Y277999D01*
X34000Y277999D01*
X33962Y277994D01*
X33929Y277997D01*
X29659Y277691D01*
X29583Y277675D01*
X29518Y277671D01*
X25336Y276761D01*
X25263Y276734D01*
X25199Y276721D01*
X21188Y275225D01*
X21120Y275188D01*
X21059Y275166D01*
X17302Y273115D01*
X17240Y273068D01*
X17182Y273038D01*
X13755Y270472D01*
X13700Y270418D01*
X13648Y270379D01*
X10621Y267352D01*
X10574Y267290D01*
X10528Y267245D01*
X7962Y263818D01*
X7925Y263750D01*
X7885Y263698D01*
X5834Y259941D01*
X5807Y259869D01*
X5775Y259812D01*
X4279Y255801D01*
X4262Y255725D01*
X4239Y255664D01*
X3329Y251482D01*
X3323Y251404D01*
X3309Y251341D01*
X3003Y247071D01*
X3006Y247033D01*
X3001Y247000D01*
X3001Y190800D01*
X3017Y190688D01*
X3026Y190575D01*
X3037Y190549D01*
X3041Y190521D01*
X3087Y190418D01*
X3128Y190312D01*
X3145Y190289D01*
X3157Y190264D01*
X3230Y190178D01*
X3299Y190088D01*
X3322Y190071D01*
X3340Y190050D01*
X3435Y189988D01*
X3526Y189920D01*
X3553Y189911D01*
X3576Y189895D01*
X3684Y189862D01*
X3791Y189823D01*
X3819Y189821D01*
X3846Y189813D01*
X3959Y189811D01*
X4072Y189803D01*
X4100Y189809D01*
G37*
G36*
X136705Y103599D02*
X136705Y103599D01*
X136705Y103600D01*
X136705Y111348D01*
X138227Y112870D01*
X138250Y112870D01*
X138255Y112874D01*
X138255Y112875D01*
X138255Y143375D01*
X138251Y143380D01*
X138250Y143380D01*
X134227Y143380D01*
X131755Y145852D01*
X131755Y155750D01*
X131755Y155751D01*
X131673Y156474D01*
X131673Y156475D01*
X131433Y157162D01*
X131432Y157162D01*
X131432Y157163D01*
X131045Y157779D01*
X131044Y157779D01*
X131044Y157780D01*
X130530Y158294D01*
X130529Y158295D01*
X129913Y158682D01*
X129912Y158682D01*
X129912Y158683D01*
X129225Y158923D01*
X129224Y158923D01*
X128501Y159005D01*
X128500Y159005D01*
X127050Y159005D01*
X126328Y159086D01*
X125642Y159326D01*
X125027Y159713D01*
X124513Y160227D01*
X124126Y160842D01*
X123886Y161528D01*
X123805Y162250D01*
X123805Y173750D01*
X123805Y173751D01*
X123723Y174474D01*
X123723Y174475D01*
X123483Y175162D01*
X123482Y175162D01*
X123482Y175163D01*
X123095Y175779D01*
X123094Y175779D01*
X123094Y175780D01*
X122580Y176294D01*
X122579Y176295D01*
X121963Y176682D01*
X121962Y176682D01*
X121962Y176683D01*
X121275Y176923D01*
X121274Y176923D01*
X120551Y177005D01*
X120550Y177005D01*
X111105Y177005D01*
X111105Y181297D01*
X111019Y181878D01*
X111018Y181879D01*
X110767Y182410D01*
X110767Y182411D01*
X110372Y182846D01*
X110371Y182847D01*
X109868Y183149D01*
X109867Y183148D01*
X109867Y183149D01*
X109297Y183292D01*
X109296Y183291D01*
X109296Y183292D01*
X109240Y183289D01*
X109239Y183289D01*
X109139Y183284D01*
X109138Y183284D01*
X109038Y183279D01*
X109037Y183279D01*
X108937Y183274D01*
X108936Y183274D01*
X108835Y183269D01*
X108734Y183264D01*
X108710Y183263D01*
X108709Y183262D01*
X108708Y183263D01*
X108156Y183065D01*
X108155Y183064D01*
X108154Y183064D01*
X107683Y182715D01*
X107683Y182714D01*
X107682Y182714D01*
X84511Y159543D01*
X84511Y159542D01*
X84510Y159542D01*
X84161Y159071D01*
X84161Y159070D01*
X84160Y159070D01*
X83962Y158517D01*
X83963Y158516D01*
X83962Y158516D01*
X83962Y158515D01*
X83961Y158506D01*
X83958Y158426D01*
X83955Y158372D01*
X83955Y158371D01*
X83951Y158292D01*
X83948Y158237D01*
X83944Y158158D01*
X83942Y158103D01*
X83938Y158024D01*
X83935Y157969D01*
X83933Y157929D01*
X83934Y157928D01*
X83933Y157928D01*
X84076Y157358D01*
X84077Y157358D01*
X84076Y157357D01*
X84378Y156854D01*
X84379Y156853D01*
X84814Y156458D01*
X84815Y156458D01*
X85346Y156207D01*
X85347Y156207D01*
X85347Y156206D01*
X85928Y156120D01*
X98033Y156120D01*
X98035Y156121D01*
X98036Y156121D01*
X98425Y156345D01*
X99133Y156535D01*
X101745Y156535D01*
X101745Y156125D01*
X101749Y156120D01*
X101750Y156120D01*
X101755Y156124D01*
X101755Y156125D01*
X101755Y156535D01*
X103132Y156535D01*
X103132Y156150D01*
X103136Y156145D01*
X103137Y156145D01*
X105422Y156145D01*
X105464Y156121D01*
X105466Y156121D01*
X105467Y156120D01*
X108499Y156120D01*
X108551Y155722D01*
X108552Y155722D01*
X108552Y155721D01*
X108716Y155323D01*
X108717Y155323D01*
X108717Y155322D01*
X108979Y154980D01*
X108980Y154980D01*
X108980Y154979D01*
X109322Y154717D01*
X109323Y154717D01*
X109323Y154716D01*
X109721Y154552D01*
X109722Y154552D01*
X109722Y154551D01*
X110149Y154495D01*
X110150Y154495D01*
X121000Y154495D01*
X121722Y154414D01*
X122408Y154174D01*
X123023Y153787D01*
X123537Y153273D01*
X123924Y152658D01*
X124164Y151972D01*
X124245Y151250D01*
X124245Y145852D01*
X121773Y143380D01*
X117750Y143380D01*
X117745Y143376D01*
X117745Y143375D01*
X117745Y112875D01*
X117749Y112870D01*
X117750Y112870D01*
X117773Y112870D01*
X119295Y111348D01*
X119295Y103600D01*
X119299Y103595D01*
X119300Y103595D01*
X136700Y103595D01*
X136705Y103599D01*
G37*
G36*
X170072Y156120D02*
X170072Y156120D01*
X170653Y156206D01*
X170654Y156207D01*
X171185Y156458D01*
X171186Y156458D01*
X171621Y156853D01*
X171621Y156854D01*
X171622Y156854D01*
X171924Y157357D01*
X171923Y157358D01*
X171924Y157358D01*
X172067Y157928D01*
X172066Y157928D01*
X172066Y157929D01*
X172067Y157929D01*
X172038Y158515D01*
X172037Y158516D01*
X172038Y158517D01*
X171840Y159070D01*
X171839Y159070D01*
X171839Y159071D01*
X171490Y159542D01*
X171489Y159542D01*
X171489Y159543D01*
X148318Y182714D01*
X148317Y182714D01*
X148317Y182715D01*
X147846Y183064D01*
X147845Y183064D01*
X147845Y183065D01*
X147292Y183263D01*
X147291Y183262D01*
X147290Y183263D01*
X147266Y183264D01*
X147165Y183269D01*
X147064Y183274D01*
X147063Y183274D01*
X146963Y183279D01*
X146962Y183279D01*
X146862Y183284D01*
X146861Y183284D01*
X146761Y183289D01*
X146760Y183289D01*
X146704Y183292D01*
X146703Y183291D01*
X146703Y183292D01*
X146133Y183149D01*
X146133Y183148D01*
X146132Y183149D01*
X145629Y182847D01*
X145628Y182846D01*
X145233Y182411D01*
X145233Y182410D01*
X144982Y181879D01*
X144982Y181878D01*
X144981Y181878D01*
X144980Y181869D01*
X144967Y181784D01*
X144958Y181725D01*
X144946Y181640D01*
X144933Y181556D01*
X144921Y181471D01*
X144912Y181412D01*
X144900Y181327D01*
X144899Y181327D01*
X144895Y181297D01*
X144895Y158125D01*
X144895Y158124D01*
X144963Y157607D01*
X144964Y157606D01*
X144964Y157605D01*
X145163Y157123D01*
X145164Y157123D01*
X145164Y157122D01*
X145482Y156708D01*
X145483Y156708D01*
X145483Y156707D01*
X145897Y156389D01*
X145898Y156389D01*
X145898Y156388D01*
X146380Y156189D01*
X146381Y156189D01*
X146382Y156188D01*
X146899Y156120D01*
X146900Y156120D01*
X170072Y156120D01*
X170072Y156120D01*
G37*
D10*
X131250Y92375D02*
X135750Y92375D01*
X135750Y87875D01*
X131250Y87875D01*
X131250Y92375D01*
X131250Y88350D02*
X135750Y88350D01*
X135750Y88825D02*
X131250Y88825D01*
X131250Y89300D02*
X135750Y89300D01*
X135750Y89775D02*
X131250Y89775D01*
X131250Y90250D02*
X135750Y90250D01*
X135750Y90725D02*
X131250Y90725D01*
X131250Y91200D02*
X135750Y91200D01*
X135750Y91675D02*
X131250Y91675D01*
X131250Y92150D02*
X135750Y92150D01*
X124750Y92375D02*
X120250Y92375D01*
X124750Y92375D02*
X124750Y87875D01*
X120250Y87875D01*
X120250Y92375D01*
X120250Y88350D02*
X124750Y88350D01*
X124750Y88825D02*
X120250Y88825D01*
X120250Y89300D02*
X124750Y89300D01*
X124750Y89775D02*
X120250Y89775D01*
X120250Y90250D02*
X124750Y90250D01*
X124750Y90725D02*
X120250Y90725D01*
X120250Y91200D02*
X124750Y91200D01*
X124750Y91675D02*
X120250Y91675D01*
X120250Y92150D02*
X124750Y92150D01*
X125750Y160875D02*
X130250Y160875D01*
X125750Y160875D02*
X125750Y165375D01*
X130250Y165375D01*
X130250Y160875D01*
X130250Y161350D02*
X125750Y161350D01*
X125750Y161825D02*
X130250Y161825D01*
X130250Y162300D02*
X125750Y162300D01*
X125750Y162775D02*
X130250Y162775D01*
X130250Y163250D02*
X125750Y163250D01*
X125750Y163725D02*
X130250Y163725D01*
X130250Y164200D02*
X125750Y164200D01*
X125750Y164675D02*
X130250Y164675D01*
X130250Y165150D02*
X125750Y165150D01*
X136750Y160875D02*
X141250Y160875D01*
X136750Y160875D02*
X136750Y165375D01*
X141250Y165375D01*
X141250Y160875D01*
X141250Y161350D02*
X136750Y161350D01*
X136750Y161825D02*
X141250Y161825D01*
X141250Y162300D02*
X136750Y162300D01*
X136750Y162775D02*
X141250Y162775D01*
X141250Y163250D02*
X136750Y163250D01*
X136750Y163725D02*
X141250Y163725D01*
X141250Y164200D02*
X136750Y164200D01*
X136750Y164675D02*
X141250Y164675D01*
X141250Y165150D02*
X136750Y165150D01*
X130250Y168875D02*
X125750Y168875D01*
X125750Y173375D01*
X130250Y173375D01*
X130250Y168875D01*
X130250Y169350D02*
X125750Y169350D01*
X125750Y169825D02*
X130250Y169825D01*
X130250Y170300D02*
X125750Y170300D01*
X125750Y170775D02*
X130250Y170775D01*
X130250Y171250D02*
X125750Y171250D01*
X125750Y171725D02*
X130250Y171725D01*
X130250Y172200D02*
X125750Y172200D01*
X125750Y172675D02*
X130250Y172675D01*
X130250Y173150D02*
X125750Y173150D01*
X136750Y168875D02*
X141250Y168875D01*
X136750Y168875D02*
X136750Y173375D01*
X141250Y173375D01*
X141250Y168875D01*
X141250Y169350D02*
X136750Y169350D01*
X136750Y169825D02*
X141250Y169825D01*
X141250Y170300D02*
X136750Y170300D01*
X136750Y170775D02*
X141250Y170775D01*
X141250Y171250D02*
X136750Y171250D01*
X136750Y171725D02*
X141250Y171725D01*
X141250Y172200D02*
X136750Y172200D01*
X136750Y172675D02*
X141250Y172675D01*
X141250Y173150D02*
X136750Y173150D01*
X130250Y176875D02*
X125750Y176875D01*
X125750Y181375D01*
X130250Y181375D01*
X130250Y176875D01*
X130250Y177350D02*
X125750Y177350D01*
X125750Y177825D02*
X130250Y177825D01*
X130250Y178300D02*
X125750Y178300D01*
X125750Y178775D02*
X130250Y178775D01*
X130250Y179250D02*
X125750Y179250D01*
X125750Y179725D02*
X130250Y179725D01*
X130250Y180200D02*
X125750Y180200D01*
X125750Y180675D02*
X130250Y180675D01*
X130250Y181150D02*
X125750Y181150D01*
X136750Y176875D02*
X141250Y176875D01*
X136750Y176875D02*
X136750Y181375D01*
X141250Y181375D01*
X141250Y176875D01*
X141250Y177350D02*
X136750Y177350D01*
X136750Y177825D02*
X141250Y177825D01*
X141250Y178300D02*
X136750Y178300D01*
X136750Y178775D02*
X141250Y178775D01*
X141250Y179250D02*
X136750Y179250D01*
X136750Y179725D02*
X141250Y179725D01*
X141250Y180200D02*
X136750Y180200D01*
X136750Y180675D02*
X141250Y180675D01*
X141250Y181150D02*
X136750Y181150D01*
X135750Y100375D02*
X131250Y100375D01*
X135750Y100375D02*
X135750Y95875D01*
X131250Y95875D01*
X131250Y100375D01*
X131250Y96350D02*
X135750Y96350D01*
X135750Y96825D02*
X131250Y96825D01*
X131250Y97300D02*
X135750Y97300D01*
X135750Y97775D02*
X131250Y97775D01*
X131250Y98250D02*
X135750Y98250D01*
X135750Y98725D02*
X131250Y98725D01*
X131250Y99200D02*
X135750Y99200D01*
X135750Y99675D02*
X131250Y99675D01*
X131250Y100150D02*
X135750Y100150D01*
X124750Y100375D02*
X120250Y100375D01*
X124750Y100375D02*
X124750Y95875D01*
X120250Y95875D01*
X120250Y100375D01*
X120250Y96350D02*
X124750Y96350D01*
X124750Y96825D02*
X120250Y96825D01*
X120250Y97300D02*
X124750Y97300D01*
X124750Y97775D02*
X120250Y97775D01*
X120250Y98250D02*
X124750Y98250D01*
X124750Y98725D02*
X120250Y98725D01*
X120250Y99200D02*
X124750Y99200D01*
X124750Y99675D02*
X120250Y99675D01*
X120250Y100150D02*
X124750Y100150D01*
X162750Y110875D02*
X167250Y110875D01*
X167250Y106375D01*
X162750Y106375D01*
X162750Y110875D01*
X162750Y106850D02*
X167250Y106850D01*
X167250Y107325D02*
X162750Y107325D01*
X162750Y107800D02*
X167250Y107800D01*
X167250Y108275D02*
X162750Y108275D01*
X162750Y108750D02*
X167250Y108750D01*
X167250Y109225D02*
X162750Y109225D01*
X162750Y109700D02*
X167250Y109700D01*
X167250Y110175D02*
X162750Y110175D01*
X162750Y110650D02*
X167250Y110650D01*
X156250Y110875D02*
X151750Y110875D01*
X156250Y110875D02*
X156250Y106375D01*
X151750Y106375D01*
X151750Y110875D01*
X151750Y106850D02*
X156250Y106850D01*
X156250Y107325D02*
X151750Y107325D01*
X151750Y107800D02*
X156250Y107800D01*
X156250Y108275D02*
X151750Y108275D01*
X151750Y108750D02*
X156250Y108750D01*
X156250Y109225D02*
X151750Y109225D01*
X151750Y109700D02*
X156250Y109700D01*
X156250Y110175D02*
X151750Y110175D01*
X151750Y110650D02*
X156250Y110650D01*
X162750Y128875D02*
X167250Y128875D01*
X167250Y124375D01*
X162750Y124375D01*
X162750Y128875D01*
X162750Y124850D02*
X167250Y124850D01*
X167250Y125325D02*
X162750Y125325D01*
X162750Y125800D02*
X167250Y125800D01*
X167250Y126275D02*
X162750Y126275D01*
X162750Y126750D02*
X167250Y126750D01*
X167250Y127225D02*
X162750Y127225D01*
X162750Y127700D02*
X167250Y127700D01*
X167250Y128175D02*
X162750Y128175D01*
X162750Y128650D02*
X167250Y128650D01*
X156250Y128875D02*
X151750Y128875D01*
X156250Y128875D02*
X156250Y124375D01*
X151750Y124375D01*
X151750Y128875D01*
X151750Y124850D02*
X156250Y124850D01*
X156250Y125325D02*
X151750Y125325D01*
X151750Y125800D02*
X156250Y125800D01*
X156250Y126275D02*
X151750Y126275D01*
X151750Y126750D02*
X156250Y126750D01*
X156250Y127225D02*
X151750Y127225D01*
X151750Y127700D02*
X156250Y127700D01*
X156250Y128175D02*
X151750Y128175D01*
X151750Y128650D02*
X156250Y128650D01*
X162750Y136125D02*
X167250Y136125D01*
X167250Y131625D01*
X162750Y131625D01*
X162750Y136125D01*
X162750Y132100D02*
X167250Y132100D01*
X167250Y132575D02*
X162750Y132575D01*
X162750Y133050D02*
X167250Y133050D01*
X167250Y133525D02*
X162750Y133525D01*
X162750Y134000D02*
X167250Y134000D01*
X167250Y134475D02*
X162750Y134475D01*
X162750Y134950D02*
X167250Y134950D01*
X167250Y135425D02*
X162750Y135425D01*
X162750Y135900D02*
X167250Y135900D01*
X156250Y136125D02*
X151750Y136125D01*
X156250Y136125D02*
X156250Y131625D01*
X151750Y131625D01*
X151750Y136125D01*
X151750Y132100D02*
X156250Y132100D01*
X156250Y132575D02*
X151750Y132575D01*
X151750Y133050D02*
X156250Y133050D01*
X156250Y133525D02*
X151750Y133525D01*
X151750Y134000D02*
X156250Y134000D01*
X156250Y134475D02*
X151750Y134475D01*
X151750Y134950D02*
X156250Y134950D01*
X156250Y135425D02*
X151750Y135425D01*
X151750Y135900D02*
X156250Y135900D01*
X105250Y92375D02*
X100750Y92375D01*
X105250Y92375D02*
X105250Y87875D01*
X100750Y87875D01*
X100750Y92375D01*
X100750Y88350D02*
X105250Y88350D01*
X105250Y88825D02*
X100750Y88825D01*
X100750Y89300D02*
X105250Y89300D01*
X105250Y89775D02*
X100750Y89775D01*
X100750Y90250D02*
X105250Y90250D01*
X105250Y90725D02*
X100750Y90725D01*
X100750Y91200D02*
X105250Y91200D01*
X105250Y91675D02*
X100750Y91675D01*
X100750Y92150D02*
X105250Y92150D01*
X94250Y92375D02*
X89750Y92375D01*
X94250Y92375D02*
X94250Y87875D01*
X89750Y87875D01*
X89750Y92375D01*
X89750Y88350D02*
X94250Y88350D01*
X94250Y88825D02*
X89750Y88825D01*
X89750Y89300D02*
X94250Y89300D01*
X94250Y89775D02*
X89750Y89775D01*
X89750Y90250D02*
X94250Y90250D01*
X94250Y90725D02*
X89750Y90725D01*
X89750Y91200D02*
X94250Y91200D01*
X94250Y91675D02*
X89750Y91675D01*
X89750Y92150D02*
X94250Y92150D01*
X100750Y100375D02*
X105250Y100375D01*
X105250Y95875D01*
X100750Y95875D01*
X100750Y100375D01*
X100750Y96350D02*
X105250Y96350D01*
X105250Y96825D02*
X100750Y96825D01*
X100750Y97300D02*
X105250Y97300D01*
X105250Y97775D02*
X100750Y97775D01*
X100750Y98250D02*
X105250Y98250D01*
X105250Y98725D02*
X100750Y98725D01*
X100750Y99200D02*
X105250Y99200D01*
X105250Y99675D02*
X100750Y99675D01*
X100750Y100150D02*
X105250Y100150D01*
X94250Y100375D02*
X89750Y100375D01*
X94250Y100375D02*
X94250Y95875D01*
X89750Y95875D01*
X89750Y100375D01*
X89750Y96350D02*
X94250Y96350D01*
X94250Y96825D02*
X89750Y96825D01*
X89750Y97300D02*
X94250Y97300D01*
X94250Y97775D02*
X89750Y97775D01*
X89750Y98250D02*
X94250Y98250D01*
X94250Y98725D02*
X89750Y98725D01*
X89750Y99200D02*
X94250Y99200D01*
X94250Y99675D02*
X89750Y99675D01*
X89750Y100150D02*
X94250Y100150D01*
X100750Y108375D02*
X105250Y108375D01*
X105250Y103875D01*
X100750Y103875D01*
X100750Y108375D01*
X100750Y104350D02*
X105250Y104350D01*
X105250Y104825D02*
X100750Y104825D01*
X100750Y105300D02*
X105250Y105300D01*
X105250Y105775D02*
X100750Y105775D01*
X100750Y106250D02*
X105250Y106250D01*
X105250Y106725D02*
X100750Y106725D01*
X100750Y107200D02*
X105250Y107200D01*
X105250Y107675D02*
X100750Y107675D01*
X100750Y108150D02*
X105250Y108150D01*
X94250Y108375D02*
X89750Y108375D01*
X94250Y108375D02*
X94250Y103875D01*
X89750Y103875D01*
X89750Y108375D01*
X89750Y104350D02*
X94250Y104350D01*
X94250Y104825D02*
X89750Y104825D01*
X89750Y105300D02*
X94250Y105300D01*
X94250Y105775D02*
X89750Y105775D01*
X89750Y106250D02*
X94250Y106250D01*
X94250Y106725D02*
X89750Y106725D01*
X89750Y107200D02*
X94250Y107200D01*
X94250Y107675D02*
X89750Y107675D01*
X89750Y108150D02*
X94250Y108150D01*
X100750Y116375D02*
X105250Y116375D01*
X105250Y111875D01*
X100750Y111875D01*
X100750Y116375D01*
X100750Y112350D02*
X105250Y112350D01*
X105250Y112825D02*
X100750Y112825D01*
X100750Y113300D02*
X105250Y113300D01*
X105250Y113775D02*
X100750Y113775D01*
X100750Y114250D02*
X105250Y114250D01*
X105250Y114725D02*
X100750Y114725D01*
X100750Y115200D02*
X105250Y115200D01*
X105250Y115675D02*
X100750Y115675D01*
X100750Y116150D02*
X105250Y116150D01*
X94250Y116375D02*
X89750Y116375D01*
X94250Y116375D02*
X94250Y111875D01*
X89750Y111875D01*
X89750Y116375D01*
X89750Y112350D02*
X94250Y112350D01*
X94250Y112825D02*
X89750Y112825D01*
X89750Y113300D02*
X94250Y113300D01*
X94250Y113775D02*
X89750Y113775D01*
X89750Y114250D02*
X94250Y114250D01*
X94250Y114725D02*
X89750Y114725D01*
X89750Y115200D02*
X94250Y115200D01*
X94250Y115675D02*
X89750Y115675D01*
X89750Y116150D02*
X94250Y116150D01*
X84250Y138875D02*
X79750Y138875D01*
X79750Y143375D01*
X84250Y143375D01*
X84250Y138875D01*
X84250Y139350D02*
X79750Y139350D01*
X79750Y139825D02*
X84250Y139825D01*
X84250Y140300D02*
X79750Y140300D01*
X79750Y140775D02*
X84250Y140775D01*
X84250Y141250D02*
X79750Y141250D01*
X79750Y141725D02*
X84250Y141725D01*
X84250Y142200D02*
X79750Y142200D01*
X79750Y142675D02*
X84250Y142675D01*
X84250Y143150D02*
X79750Y143150D01*
X90750Y138875D02*
X95250Y138875D01*
X90750Y138875D02*
X90750Y143375D01*
X95250Y143375D01*
X95250Y138875D01*
X95250Y139350D02*
X90750Y139350D01*
X90750Y139825D02*
X95250Y139825D01*
X95250Y140300D02*
X90750Y140300D01*
X90750Y140775D02*
X95250Y140775D01*
X95250Y141250D02*
X90750Y141250D01*
X90750Y141725D02*
X95250Y141725D01*
X95250Y142200D02*
X90750Y142200D01*
X90750Y142675D02*
X95250Y142675D01*
X95250Y143150D02*
X90750Y143150D01*
X90750Y151375D02*
X95250Y151375D01*
X95250Y146875D01*
X90750Y146875D01*
X90750Y151375D01*
X90750Y147350D02*
X95250Y147350D01*
X95250Y147825D02*
X90750Y147825D01*
X90750Y148300D02*
X95250Y148300D01*
X95250Y148775D02*
X90750Y148775D01*
X90750Y149250D02*
X95250Y149250D01*
X95250Y149725D02*
X90750Y149725D01*
X90750Y150200D02*
X95250Y150200D01*
X95250Y150675D02*
X90750Y150675D01*
X90750Y151150D02*
X95250Y151150D01*
X84250Y151375D02*
X79750Y151375D01*
X84250Y151375D02*
X84250Y146875D01*
X79750Y146875D01*
X79750Y151375D01*
X79750Y147350D02*
X84250Y147350D01*
X84250Y147825D02*
X79750Y147825D01*
X79750Y148300D02*
X84250Y148300D01*
X84250Y148775D02*
X79750Y148775D01*
X79750Y149250D02*
X84250Y149250D01*
X84250Y149725D02*
X79750Y149725D01*
X79750Y150200D02*
X84250Y150200D01*
X84250Y150675D02*
X79750Y150675D01*
X79750Y151150D02*
X84250Y151150D01*
D11*
X135500Y106625D03*
D12*
X144500Y110625D03*
X144500Y115625D03*
X144500Y120625D03*
X144500Y125625D03*
X144500Y130625D03*
X144500Y135625D03*
X144500Y140625D03*
X144500Y145625D03*
D11*
X135500Y149625D03*
X120500Y149625D03*
D12*
X111500Y145625D03*
X111500Y140625D03*
X111500Y135625D03*
X111500Y130625D03*
X111500Y125625D03*
X111500Y120625D03*
X111500Y115625D03*
X111500Y110625D03*
D11*
X120500Y106625D03*
D13*
X126200Y124325D02*
X126200Y131925D01*
X129800Y131925D01*
X129800Y124325D01*
X126200Y124325D01*
X126200Y124705D02*
X129800Y124705D01*
X129800Y125085D02*
X126200Y125085D01*
X126200Y125465D02*
X129800Y125465D01*
X129800Y125845D02*
X126200Y125845D01*
X126200Y126225D02*
X129800Y126225D01*
X129800Y126605D02*
X126200Y126605D01*
X126200Y126985D02*
X129800Y126985D01*
X129800Y127365D02*
X126200Y127365D01*
X126200Y127745D02*
X129800Y127745D01*
X129800Y128125D02*
X126200Y128125D01*
X126200Y128505D02*
X129800Y128505D01*
X129800Y128885D02*
X126200Y128885D01*
X126200Y129265D02*
X129800Y129265D01*
X129800Y129645D02*
X126200Y129645D01*
X126200Y130025D02*
X129800Y130025D01*
X129800Y130405D02*
X126200Y130405D01*
X126200Y130785D02*
X129800Y130785D01*
X129800Y131165D02*
X126200Y131165D01*
X126200Y131545D02*
X129800Y131545D01*
X129800Y131925D02*
X126200Y131925D01*
D10*
X99500Y149250D02*
X99500Y153750D01*
X104000Y153750D01*
X104000Y149250D01*
X99500Y149250D01*
X99500Y149725D02*
X104000Y149725D01*
X104000Y150200D02*
X99500Y150200D01*
X99500Y150675D02*
X104000Y150675D01*
X104000Y151150D02*
X99500Y151150D01*
X99500Y151625D02*
X104000Y151625D01*
X104000Y152100D02*
X99500Y152100D01*
X99500Y152575D02*
X104000Y152575D01*
X104000Y153050D02*
X99500Y153050D01*
X99500Y153525D02*
X104000Y153525D01*
X99500Y142750D02*
X99500Y138250D01*
X99500Y142750D02*
X104000Y142750D01*
X104000Y138250D01*
X99500Y138250D01*
X99500Y138725D02*
X104000Y138725D01*
X104000Y139200D02*
X99500Y139200D01*
X99500Y139675D02*
X104000Y139675D01*
X104000Y140150D02*
X99500Y140150D01*
X99500Y140625D02*
X104000Y140625D01*
X104000Y141100D02*
X99500Y141100D01*
X99500Y141575D02*
X104000Y141575D01*
X104000Y142050D02*
X99500Y142050D01*
X99500Y142525D02*
X104000Y142525D01*
X162750Y143250D02*
X167250Y143250D01*
X167250Y138750D01*
X162750Y138750D01*
X162750Y143250D01*
X162750Y139225D02*
X167250Y139225D01*
X167250Y139700D02*
X162750Y139700D01*
X162750Y140175D02*
X167250Y140175D01*
X167250Y140650D02*
X162750Y140650D01*
X162750Y141125D02*
X167250Y141125D01*
X167250Y141600D02*
X162750Y141600D01*
X162750Y142075D02*
X167250Y142075D01*
X167250Y142550D02*
X162750Y142550D01*
X162750Y143025D02*
X167250Y143025D01*
X156250Y143250D02*
X151750Y143250D01*
X156250Y143250D02*
X156250Y138750D01*
X151750Y138750D01*
X151750Y143250D01*
X151750Y139225D02*
X156250Y139225D01*
X156250Y139700D02*
X151750Y139700D01*
X151750Y140175D02*
X156250Y140175D01*
X156250Y140650D02*
X151750Y140650D01*
X151750Y141125D02*
X156250Y141125D01*
X156250Y141600D02*
X151750Y141600D01*
X151750Y142075D02*
X156250Y142075D01*
X156250Y142550D02*
X151750Y142550D01*
X151750Y143025D02*
X156250Y143025D01*
X162750Y150500D02*
X167250Y150500D01*
X167250Y146000D01*
X162750Y146000D01*
X162750Y150500D01*
X162750Y146475D02*
X167250Y146475D01*
X167250Y146950D02*
X162750Y146950D01*
X162750Y147425D02*
X167250Y147425D01*
X167250Y147900D02*
X162750Y147900D01*
X162750Y148375D02*
X167250Y148375D01*
X167250Y148850D02*
X162750Y148850D01*
X162750Y149325D02*
X167250Y149325D01*
X167250Y149800D02*
X162750Y149800D01*
X162750Y150275D02*
X167250Y150275D01*
X156250Y150500D02*
X151750Y150500D01*
X156250Y150500D02*
X156250Y146000D01*
X151750Y146000D01*
X151750Y150500D01*
X151750Y146475D02*
X156250Y146475D01*
X156250Y146950D02*
X151750Y146950D01*
X151750Y147425D02*
X156250Y147425D01*
X156250Y147900D02*
X151750Y147900D01*
X151750Y148375D02*
X156250Y148375D01*
X156250Y148850D02*
X151750Y148850D01*
X151750Y149325D02*
X156250Y149325D01*
X156250Y149800D02*
X151750Y149800D01*
X151750Y150275D02*
X156250Y150275D01*
D14*
X163250Y110375D02*
X165000Y108625D01*
X163250Y110375D02*
X163250Y124875D01*
X165000Y126625D01*
X165000Y133875D01*
D15*
X141800Y98125D02*
X133500Y98125D01*
X141800Y98125D02*
X144500Y100825D01*
X144500Y104000D02*
X144500Y109325D01*
X144500Y104000D02*
X144500Y100875D01*
D14*
X144500Y109325D02*
X144500Y110625D01*
D15*
X133500Y98125D02*
X133500Y90125D01*
D14*
X163250Y106875D02*
X165000Y108625D01*
X163250Y106875D02*
X163250Y104700D01*
X162050Y103500D01*
X145000Y103500D01*
X144500Y104000D01*
D15*
X122500Y98125D02*
X111500Y98125D01*
X111500Y109325D01*
D14*
X111500Y110625D01*
D16*
X128000Y6050D03*
D15*
X122500Y55191D02*
X122500Y90125D01*
X128000Y5500D02*
X130983Y5536D01*
X133964Y5645D01*
X136942Y5827D01*
X139914Y6081D01*
X142880Y6407D01*
X145836Y6805D01*
X148782Y7276D01*
X151716Y7818D01*
X154635Y8431D01*
X157539Y9115D01*
X160425Y9869D01*
X163292Y10694D01*
X166138Y11588D01*
X168962Y12551D01*
X171761Y13583D01*
X174534Y14683D01*
X177280Y15849D01*
X179996Y17083D01*
X182681Y18382D01*
X185335Y19746D01*
X187954Y21174D01*
X190537Y22666D01*
X193084Y24220D01*
X195592Y25835D01*
X198059Y27511D01*
X200486Y29247D01*
X202869Y31042D01*
X205208Y32894D01*
X207501Y34802D01*
X209747Y36765D01*
X211944Y38783D01*
X214092Y40854D01*
X216188Y42976D01*
X218232Y45149D01*
X220223Y47370D01*
X222159Y49640D01*
X224039Y51956D01*
X225863Y54317D01*
X227628Y56722D01*
X229334Y59169D01*
X230980Y61657D01*
X232565Y64185D01*
X234088Y66750D01*
X235548Y69352D01*
X236944Y71988D01*
X238276Y74657D01*
X239542Y77358D01*
X240742Y80090D01*
X241876Y82849D01*
X242941Y85636D01*
X243939Y88447D01*
X244868Y91282D01*
X245727Y94139D01*
X246517Y97016D01*
X247236Y99911D01*
X247885Y102823D01*
X248462Y105749D01*
X248968Y108689D01*
X249403Y111641D01*
X249765Y114602D01*
X250055Y117571D01*
X250273Y120546D01*
X250418Y123526D01*
X250491Y126508D01*
X250491Y129492D01*
X250418Y132474D01*
X250273Y135454D01*
X250055Y138429D01*
X249765Y141398D01*
X249403Y144359D01*
X248968Y147311D01*
X248462Y150251D01*
X247885Y153177D01*
X247236Y156089D01*
X246517Y158984D01*
X245727Y161861D01*
X244868Y164718D01*
X243939Y167553D01*
X242941Y170364D01*
X241876Y173151D01*
X240742Y175910D01*
X239542Y178642D01*
X238276Y181343D01*
X236944Y184012D01*
X235548Y186648D01*
X234088Y189250D01*
X232565Y191815D01*
X230980Y194343D01*
X229334Y196831D01*
X227628Y199278D01*
X225863Y201683D01*
X224039Y204044D01*
X222159Y206360D01*
X220223Y208630D01*
X218232Y210851D01*
X216188Y213024D01*
X214092Y215146D01*
X211944Y217217D01*
X209747Y219235D01*
X207501Y221198D01*
X205208Y223106D01*
X202869Y224958D01*
X200486Y226753D01*
X198059Y228489D01*
X195592Y230165D01*
X193084Y231780D01*
X190537Y233334D01*
X187954Y234826D01*
X185335Y236254D01*
X182681Y237618D01*
X179996Y238917D01*
X177280Y240151D01*
X174534Y241317D01*
X171761Y242417D01*
X168962Y243449D01*
X166138Y244412D01*
X163292Y245306D01*
X160425Y246131D01*
X157539Y246885D01*
X154635Y247569D01*
X151716Y248182D01*
X148782Y248724D01*
X145836Y249195D01*
X142880Y249593D01*
X139914Y249919D01*
X136942Y250173D01*
X133964Y250355D01*
X130983Y250464D01*
X128000Y250500D01*
X128000Y13500D02*
X127819Y13498D01*
X127637Y13491D01*
X127456Y13480D01*
X127275Y13465D01*
X127095Y13445D01*
X126915Y13421D01*
X126735Y13393D01*
X126557Y13360D01*
X126379Y13323D01*
X126202Y13282D01*
X126027Y13236D01*
X125852Y13186D01*
X125679Y13132D01*
X125507Y13074D01*
X125336Y13012D01*
X125167Y12945D01*
X125000Y12874D01*
X124835Y12800D01*
X124671Y12721D01*
X124509Y12639D01*
X124350Y12552D01*
X124192Y12462D01*
X124037Y12368D01*
X123884Y12270D01*
X123733Y12169D01*
X123585Y12064D01*
X123440Y11955D01*
X123297Y11843D01*
X123157Y11728D01*
X123020Y11609D01*
X122885Y11487D01*
X122754Y11361D01*
X122626Y11233D01*
X122501Y11101D01*
X122379Y10967D01*
X122260Y10829D01*
X122145Y10689D01*
X122033Y10546D01*
X121925Y10400D01*
X121820Y10252D01*
X121719Y10101D01*
X121622Y9948D01*
X121528Y9792D01*
X121438Y9635D01*
X121352Y9475D01*
X121270Y9313D01*
X121191Y9149D01*
X121117Y8983D01*
X121047Y8816D01*
X120981Y8647D01*
X120919Y8476D01*
X120861Y8304D01*
X120807Y8131D01*
X120758Y7956D01*
X120713Y7780D01*
X120672Y7603D01*
X120635Y7426D01*
X120603Y7247D01*
X120574Y7068D01*
X120551Y6888D01*
X120531Y6707D01*
X120517Y6526D01*
X120506Y6345D01*
X120500Y6163D01*
X120498Y5982D01*
X120501Y5800D01*
X128000Y13501D02*
X128183Y13497D01*
X128365Y13489D01*
X128547Y13476D01*
X128729Y13459D01*
X128910Y13438D01*
X129091Y13412D01*
X129271Y13382D01*
X129450Y13347D01*
X129628Y13308D01*
X129805Y13265D01*
X129982Y13218D01*
X130156Y13166D01*
X130330Y13110D01*
X130502Y13049D01*
X130673Y12985D01*
X130842Y12916D01*
X131010Y12843D01*
X131175Y12766D01*
X131339Y12686D01*
X131500Y12601D01*
X128000Y20500D02*
X127645Y20495D01*
X127291Y20482D01*
X126937Y20460D01*
X126584Y20430D01*
X126232Y20391D01*
X125881Y20343D01*
X125531Y20287D01*
X125183Y20222D01*
X124836Y20149D01*
X124491Y20067D01*
X124148Y19977D01*
X123808Y19878D01*
X123470Y19772D01*
X123135Y19657D01*
X122802Y19533D01*
X122473Y19402D01*
X122147Y19263D01*
X121825Y19116D01*
X121506Y18961D01*
X121192Y18798D01*
X120881Y18627D01*
X120574Y18449D01*
X120272Y18264D01*
X119975Y18071D01*
X119682Y17871D01*
X119395Y17664D01*
X119112Y17450D01*
X118835Y17229D01*
X118563Y17002D01*
X118297Y16768D01*
X118037Y16527D01*
X117783Y16280D01*
X117535Y16027D01*
X117293Y15768D01*
X117057Y15503D01*
X116828Y15233D01*
X116606Y14957D01*
X116391Y14676D01*
X116182Y14389D01*
X115981Y14097D01*
X115786Y13801D01*
X115600Y13500D01*
X128000Y20500D02*
X128334Y20500D01*
X128667Y20492D01*
X129001Y20476D01*
X129334Y20452D01*
X129666Y20421D01*
X129997Y20382D01*
X130328Y20336D01*
X130657Y20282D01*
X130985Y20220D01*
X131312Y20151D01*
X131637Y20074D01*
X131960Y19990D01*
X132281Y19899D01*
X132600Y19800D01*
X128000Y27500D02*
X127476Y27494D01*
X126952Y27474D01*
X126428Y27442D01*
X125905Y27398D01*
X125384Y27340D01*
X124864Y27270D01*
X124346Y27187D01*
X123830Y27092D01*
X123317Y26984D01*
X122807Y26863D01*
X122299Y26730D01*
X121795Y26585D01*
X121295Y26428D01*
X120798Y26258D01*
X120306Y26076D01*
X119819Y25883D01*
X119336Y25677D01*
X118859Y25460D01*
X118387Y25231D01*
X117921Y24991D01*
X117460Y24739D01*
X117006Y24477D01*
X116559Y24203D01*
X116118Y23918D01*
X115684Y23623D01*
X115258Y23318D01*
X114840Y23002D01*
X114429Y22675D01*
X114026Y22339D01*
X113631Y21994D01*
X113246Y21638D01*
X112868Y21274D01*
X112500Y20900D01*
X128000Y27500D02*
X128515Y27495D01*
X129029Y27478D01*
X129543Y27448D01*
X130056Y27407D01*
X130568Y27353D01*
X131078Y27286D01*
X131587Y27208D01*
X132094Y27117D01*
X132598Y27015D01*
X133100Y26900D01*
X128000Y34501D02*
X127314Y34494D01*
X126628Y34470D01*
X125943Y34430D01*
X125260Y34374D01*
X124578Y34301D01*
X123897Y34211D01*
X123219Y34105D01*
X122544Y33983D01*
X121872Y33845D01*
X121204Y33691D01*
X120539Y33520D01*
X119879Y33334D01*
X119223Y33132D01*
X118573Y32914D01*
X117928Y32681D01*
X117288Y32432D01*
X116655Y32168D01*
X116029Y31888D01*
X115409Y31594D01*
X114796Y31285D01*
X114192Y30961D01*
X113595Y30623D01*
X113006Y30270D01*
X112426Y29903D01*
X111855Y29523D01*
X111294Y29129D01*
X110742Y28721D01*
X110200Y28301D01*
X128000Y34500D02*
X128660Y34494D01*
X129320Y34473D01*
X129979Y34437D01*
X130637Y34385D01*
X131294Y34318D01*
X131949Y34236D01*
X132601Y34139D01*
X133252Y34027D01*
X133900Y33900D01*
X128000Y41500D02*
X127150Y41490D01*
X126300Y41460D01*
X125451Y41409D01*
X124604Y41338D01*
X123759Y41247D01*
X122916Y41135D01*
X122076Y41003D01*
X121240Y40852D01*
X120407Y40680D01*
X119579Y40489D01*
X118755Y40277D01*
X117937Y40046D01*
X117125Y39796D01*
X116319Y39526D01*
X115519Y39237D01*
X114727Y38928D01*
X113942Y38601D01*
X113166Y38255D01*
X112398Y37891D01*
X111638Y37509D01*
X110889Y37108D01*
X110149Y36689D01*
X109419Y36253D01*
X108700Y35800D01*
X128000Y41500D02*
X128766Y41495D01*
X129532Y41473D01*
X130297Y41436D01*
X131061Y41381D01*
X131824Y41310D01*
X132585Y41223D01*
X133344Y41120D01*
X134100Y41000D01*
X128000Y48500D02*
X126987Y48489D01*
X125974Y48453D01*
X124963Y48393D01*
X123954Y48310D01*
X122946Y48202D01*
X121942Y48070D01*
X120941Y47914D01*
X119944Y47735D01*
X118951Y47532D01*
X117964Y47305D01*
X116983Y47055D01*
X116007Y46781D01*
X115039Y46485D01*
X114077Y46165D01*
X113124Y45822D01*
X112179Y45457D01*
X111243Y45070D01*
X110317Y44660D01*
X109400Y44228D01*
X108494Y43775D01*
X107600Y43300D01*
X128000Y48500D02*
X128916Y48494D01*
X129833Y48468D01*
X130748Y48422D01*
X131663Y48357D01*
X132575Y48272D01*
X133486Y48168D01*
X134394Y48043D01*
X135300Y47900D01*
X120500Y5750D02*
X117513Y5970D01*
X114533Y6263D01*
X111561Y6628D01*
X108599Y7066D01*
X105648Y7577D01*
X102711Y8159D01*
X99789Y8813D01*
X96884Y9538D01*
X93997Y10334D01*
X91131Y11201D01*
X88286Y12137D01*
X85466Y13142D01*
X82670Y14216D01*
X79902Y15358D01*
X77163Y16568D01*
X74454Y17844D01*
X71777Y19185D01*
X69134Y20592D01*
X66526Y22063D01*
X63954Y23598D01*
X61421Y25194D01*
X58928Y26853D01*
X56475Y28571D01*
X54066Y30349D01*
X51701Y32186D01*
X49381Y34080D01*
X47109Y36030D01*
X44884Y38034D01*
X42710Y40093D01*
X40586Y42204D01*
X38515Y44367D01*
X36497Y46579D01*
X34534Y48840D01*
X32627Y51148D01*
X30776Y53503D01*
X28984Y55902D01*
X27251Y58344D01*
X25578Y60827D01*
X23966Y63351D01*
X22417Y65913D01*
X20930Y68513D01*
X19508Y71148D01*
X18151Y73817D01*
X16859Y76518D01*
X15633Y79250D01*
X14475Y82012D01*
X13384Y84801D01*
X12362Y87615D01*
X11409Y90454D01*
X10526Y93315D01*
X9713Y96197D01*
X8971Y99098D01*
X8300Y102016D01*
X7700Y104950D01*
X7172Y107898D01*
X6717Y110857D01*
X6334Y113827D01*
X6024Y116805D01*
X5786Y119790D01*
X5622Y122780D01*
X5530Y125773D01*
X5512Y128768D01*
X5567Y131762D01*
X5696Y134753D01*
X5897Y137741D01*
X6172Y140723D01*
X6519Y143697D01*
X6938Y146662D01*
X7431Y149616D01*
X7995Y152557D01*
X8631Y155483D01*
X9338Y158392D01*
X10116Y161284D01*
X10965Y164156D01*
X11883Y167006D01*
X12871Y169833D01*
X13928Y172634D01*
X15053Y175409D01*
X16245Y178156D01*
X17504Y180873D01*
X18830Y183558D01*
X20220Y186210D01*
X21675Y188828D01*
X23193Y191408D01*
X24774Y193951D01*
X26417Y196455D01*
X28121Y198918D01*
X29884Y201338D01*
X31706Y203715D01*
X33585Y206046D01*
X35521Y208330D01*
X37512Y210567D01*
X39557Y212754D01*
X41655Y214891D01*
X43804Y216976D01*
X46004Y219007D01*
X48253Y220984D01*
X50550Y222906D01*
X52892Y224771D01*
X55280Y226578D01*
X57711Y228326D01*
X60185Y230014D01*
X62698Y231641D01*
X65251Y233207D01*
X67841Y234709D01*
X70467Y236148D01*
X73128Y237522D01*
X75821Y238831D01*
X78546Y240073D01*
X81300Y241248D01*
X84082Y242356D01*
X86890Y243395D01*
X89723Y244366D01*
X92579Y245267D01*
X95456Y246098D01*
X98352Y246858D01*
X101266Y247547D01*
X104196Y248165D01*
X107140Y248711D01*
X110097Y249185D01*
X113064Y249586D01*
X116041Y249915D01*
X119024Y250171D01*
X122013Y250354D01*
X125005Y250463D01*
X128000Y250500D01*
X128000Y243500D02*
X130828Y243465D01*
X133655Y243362D01*
X136478Y243188D01*
X139296Y242946D01*
X142107Y242635D01*
X144910Y242255D01*
X147702Y241807D01*
X150483Y241291D01*
X153251Y240706D01*
X156003Y240054D01*
X158738Y239335D01*
X161455Y238549D01*
X164152Y237696D01*
X166827Y236778D01*
X169479Y235795D01*
X172106Y234747D01*
X174707Y233635D01*
X177280Y232460D01*
X179823Y231222D01*
X182335Y229922D01*
X184814Y228561D01*
X187260Y227140D01*
X189669Y225659D01*
X192042Y224120D01*
X194377Y222523D01*
X196671Y220869D01*
X198925Y219160D01*
X201136Y217396D01*
X203303Y215578D01*
X205425Y213708D01*
X207500Y211787D01*
X209528Y209815D01*
X211507Y207794D01*
X213436Y205725D01*
X215314Y203610D01*
X217139Y201450D01*
X218911Y199245D01*
X220628Y196998D01*
X222290Y194709D01*
X223895Y192380D01*
X225443Y190013D01*
X226932Y187608D01*
X228362Y185168D01*
X229732Y182693D01*
X231041Y180186D01*
X232288Y177647D01*
X233472Y175079D01*
X234593Y172482D01*
X235651Y169859D01*
X236643Y167210D01*
X237571Y164538D01*
X238433Y161845D01*
X239229Y159130D01*
X239958Y156398D01*
X240620Y153648D01*
X241214Y150882D01*
X241740Y148103D01*
X242199Y145312D01*
X242588Y142511D01*
X242909Y139701D01*
X243162Y136884D01*
X243345Y134061D01*
X243459Y131235D01*
X243503Y128407D01*
X243479Y125579D01*
X243385Y122752D01*
X243222Y119928D01*
X242990Y117109D01*
X242689Y114297D01*
X242319Y111493D01*
X241881Y108699D01*
X241374Y105916D01*
X240799Y103147D01*
X240157Y100392D01*
X239448Y97654D01*
X238671Y94934D01*
X237828Y92234D01*
X236920Y89556D01*
X235946Y86900D01*
X234907Y84270D01*
X233805Y81665D01*
X232638Y79088D01*
X231410Y76541D01*
X230119Y74024D01*
X228766Y71540D01*
X227354Y69090D01*
X225882Y66674D01*
X224351Y64296D01*
X222762Y61956D01*
X221117Y59655D01*
X219416Y57396D01*
X217659Y55179D01*
X215850Y53005D01*
X213987Y50877D01*
X212073Y48794D01*
X210108Y46759D01*
X208095Y44773D01*
X206033Y42837D01*
X203924Y40952D01*
X201770Y39119D01*
X199572Y37339D01*
X197331Y35614D01*
X195048Y33944D01*
X192725Y32331D01*
X190363Y30774D01*
X187964Y29277D01*
X185529Y27838D01*
X183059Y26459D01*
X180556Y25142D01*
X178022Y23886D01*
X175458Y22692D01*
X172865Y21562D01*
X170246Y20495D01*
X167601Y19493D01*
X164932Y18556D01*
X162241Y17684D01*
X159530Y16879D01*
X156800Y16140D01*
X154052Y15468D01*
X151289Y14864D01*
X148512Y14328D01*
X145723Y13860D01*
X142923Y13460D01*
X140114Y13129D01*
X137297Y12867D01*
X134476Y12674D01*
X131650Y12550D01*
X115350Y13201D02*
X112547Y13544D01*
X109753Y13956D01*
X106971Y14437D01*
X104200Y14985D01*
X101444Y15600D01*
X98704Y16283D01*
X95982Y17033D01*
X93278Y17849D01*
X90596Y18730D01*
X87935Y19678D01*
X85299Y20689D01*
X82688Y21766D01*
X80105Y22905D01*
X77549Y24107D01*
X75024Y25372D01*
X72531Y26698D01*
X70071Y28084D01*
X67646Y29530D01*
X65256Y31035D01*
X62904Y32598D01*
X60591Y34218D01*
X58319Y35894D01*
X56088Y37625D01*
X53899Y39410D01*
X51756Y41248D01*
X49658Y43138D01*
X47606Y45079D01*
X45603Y47069D01*
X43649Y49108D01*
X41745Y51194D01*
X39893Y53325D01*
X38094Y55502D01*
X36348Y57721D01*
X34657Y59983D01*
X33022Y62285D01*
X31444Y64627D01*
X29923Y67007D01*
X28462Y69423D01*
X27059Y71874D01*
X25717Y74358D01*
X24436Y76875D01*
X23217Y79422D01*
X22061Y81998D01*
X20968Y84602D01*
X19939Y87232D01*
X18974Y89886D01*
X18075Y92563D01*
X17241Y95261D01*
X16474Y97978D01*
X15773Y100714D01*
X15140Y103466D01*
X14573Y106232D01*
X14075Y109012D01*
X13645Y111803D01*
X13283Y114603D01*
X12990Y117412D01*
X12765Y120227D01*
X12609Y123046D01*
X12523Y125869D01*
X12505Y128693D01*
X12556Y131516D01*
X12677Y134338D01*
X12866Y137155D01*
X13124Y139967D01*
X13451Y142772D01*
X13846Y145568D01*
X14310Y148354D01*
X14842Y151127D01*
X15441Y153887D01*
X16107Y156631D01*
X16840Y159358D01*
X17640Y162066D01*
X18506Y164754D01*
X19437Y167420D01*
X20433Y170062D01*
X21494Y172679D01*
X22618Y175270D01*
X23805Y177832D01*
X25054Y180364D01*
X26365Y182866D01*
X27737Y185334D01*
X29168Y187768D01*
X30659Y190166D01*
X32208Y192528D01*
X33814Y194850D01*
X35476Y197133D01*
X37194Y199374D01*
X38966Y201573D01*
X40791Y203728D01*
X42669Y205837D01*
X44597Y207900D01*
X46575Y209915D01*
X48602Y211881D01*
X50677Y213797D01*
X52797Y215662D01*
X54963Y217474D01*
X57172Y219233D01*
X59424Y220938D01*
X61716Y222586D01*
X64048Y224179D01*
X66419Y225713D01*
X68826Y227190D01*
X71269Y228607D01*
X73745Y229964D01*
X76254Y231260D01*
X78794Y232494D01*
X81363Y233666D01*
X83960Y234774D01*
X86584Y235819D01*
X89232Y236799D01*
X91904Y237714D01*
X94597Y238564D01*
X97310Y239348D01*
X100041Y240065D01*
X102789Y240715D01*
X105552Y241298D01*
X108329Y241812D01*
X111117Y242259D01*
X113915Y242638D01*
X116722Y242948D01*
X119536Y243189D01*
X122354Y243362D01*
X125176Y243465D01*
X128000Y243500D01*
X128000Y236500D02*
X130644Y236468D01*
X133287Y236371D01*
X135926Y236210D01*
X138561Y235985D01*
X141189Y235695D01*
X143810Y235342D01*
X146421Y234925D01*
X149021Y234444D01*
X151609Y233900D01*
X154183Y233294D01*
X156741Y232624D01*
X159282Y231893D01*
X161805Y231100D01*
X164307Y230245D01*
X166788Y229330D01*
X169246Y228355D01*
X171680Y227320D01*
X174087Y226226D01*
X176467Y225074D01*
X178819Y223864D01*
X181140Y222597D01*
X183429Y221274D01*
X185686Y219896D01*
X187908Y218463D01*
X190095Y216976D01*
X192245Y215437D01*
X194357Y213845D01*
X196429Y212203D01*
X198461Y210510D01*
X200451Y208769D01*
X202398Y206979D01*
X204301Y205143D01*
X206158Y203261D01*
X207969Y201334D01*
X209732Y199363D01*
X211447Y197351D01*
X213113Y195296D01*
X214728Y193202D01*
X216291Y191070D01*
X217802Y188900D01*
X219259Y186693D01*
X220663Y184452D01*
X222011Y182177D01*
X223303Y179870D01*
X224539Y177532D01*
X225718Y175165D01*
X226838Y172770D01*
X227900Y170348D01*
X228903Y167901D01*
X229845Y165431D01*
X230727Y162938D01*
X231549Y160424D01*
X232308Y157891D01*
X233006Y155341D01*
X233641Y152774D01*
X234214Y150192D01*
X234723Y147597D01*
X235169Y144991D01*
X235551Y142374D01*
X235870Y139749D01*
X236125Y137117D01*
X236315Y134480D01*
X236441Y131838D01*
X236502Y129195D01*
X236499Y126550D01*
X236432Y123907D01*
X236300Y121266D01*
X236104Y118629D01*
X235844Y115997D01*
X235520Y113373D01*
X235132Y110757D01*
X234680Y108152D01*
X234165Y105558D01*
X233587Y102978D01*
X232946Y100412D01*
X232243Y97863D01*
X231477Y95332D01*
X230651Y92820D01*
X229763Y90329D01*
X228815Y87860D01*
X227808Y85416D01*
X226740Y82996D01*
X225615Y80603D01*
X224431Y78239D01*
X223190Y75904D01*
X221892Y73600D01*
X220539Y71328D01*
X219131Y69090D01*
X217669Y66887D01*
X216153Y64720D01*
X214585Y62590D01*
X212966Y60500D01*
X211296Y58449D01*
X209576Y56440D01*
X207809Y54474D01*
X205993Y52551D01*
X204132Y50673D01*
X202225Y48840D01*
X200274Y47055D01*
X198281Y45318D01*
X196245Y43630D01*
X194169Y41992D01*
X192054Y40405D01*
X189901Y38870D01*
X187711Y37388D01*
X185485Y35960D01*
X183225Y34587D01*
X180933Y33269D01*
X178609Y32007D01*
X176255Y30802D01*
X173873Y29655D01*
X171463Y28567D01*
X169027Y27537D01*
X166567Y26567D01*
X164084Y25657D01*
X161580Y24809D01*
X159055Y24021D01*
X156513Y23295D01*
X153953Y22631D01*
X151378Y22030D01*
X148789Y21492D01*
X146187Y21017D01*
X143575Y20606D01*
X140954Y20258D01*
X138325Y19974D01*
X135690Y19755D01*
X133050Y19600D01*
X112250Y20649D02*
X109640Y21065D01*
X107041Y21544D01*
X104455Y22086D01*
X101882Y22690D01*
X99325Y23358D01*
X96785Y24087D01*
X94264Y24878D01*
X91762Y25730D01*
X89282Y26643D01*
X86825Y27616D01*
X84393Y28649D01*
X81986Y29740D01*
X79606Y30890D01*
X77256Y32098D01*
X74935Y33362D01*
X72646Y34682D01*
X70390Y36058D01*
X68167Y37489D01*
X65981Y38973D01*
X63831Y40509D01*
X61719Y42098D01*
X59647Y43738D01*
X57615Y45428D01*
X55625Y47166D01*
X53678Y48953D01*
X51774Y50787D01*
X49917Y52666D01*
X48105Y54590D01*
X46341Y56558D01*
X44625Y58567D01*
X42959Y60619D01*
X41343Y62710D01*
X39779Y64840D01*
X38266Y67007D01*
X36808Y69211D01*
X35403Y71449D01*
X34053Y73721D01*
X32759Y76025D01*
X31521Y78360D01*
X30341Y80724D01*
X29219Y83117D01*
X28155Y85536D01*
X27150Y87980D01*
X26206Y90448D01*
X25321Y92939D01*
X24498Y95450D01*
X23736Y97980D01*
X23035Y100528D01*
X22398Y103093D01*
X21822Y105672D01*
X21310Y108265D01*
X20861Y110869D01*
X20476Y113483D01*
X20154Y116106D01*
X19896Y118736D01*
X19703Y121372D01*
X19573Y124012D01*
X19508Y126653D01*
X19508Y129296D01*
X19571Y131938D01*
X19700Y134578D01*
X19892Y137213D01*
X20148Y139843D01*
X20469Y142467D01*
X20853Y145081D01*
X21301Y147686D01*
X21812Y150278D01*
X22386Y152858D01*
X23023Y155423D01*
X23722Y157971D01*
X24483Y160502D01*
X25305Y163014D01*
X26188Y165504D01*
X27132Y167973D01*
X28135Y170418D01*
X29198Y172837D01*
X30319Y175230D01*
X31498Y177595D01*
X32735Y179931D01*
X34028Y182235D01*
X35377Y184508D01*
X36780Y186747D01*
X38238Y188951D01*
X39749Y191119D01*
X41313Y193250D01*
X42927Y195342D01*
X44593Y197394D01*
X46308Y199404D01*
X48071Y201373D01*
X49881Y203298D01*
X51739Y205178D01*
X53641Y207012D01*
X55587Y208800D01*
X57576Y210540D01*
X59608Y212230D01*
X61679Y213871D01*
X63790Y215461D01*
X65939Y216999D01*
X68125Y218484D01*
X70347Y219915D01*
X72602Y221292D01*
X74891Y222613D01*
X77211Y223879D01*
X79561Y225087D01*
X81940Y226238D01*
X84346Y227331D01*
X86778Y228364D01*
X89235Y229339D01*
X91715Y230253D01*
X94216Y231106D01*
X96737Y231898D01*
X99276Y232629D01*
X101833Y233297D01*
X104405Y233903D01*
X106992Y234447D01*
X109590Y234927D01*
X112200Y235343D01*
X114819Y235696D01*
X117446Y235985D01*
X120079Y236210D01*
X122717Y236371D01*
X125357Y236468D01*
X128000Y236500D01*
X128000Y229500D02*
X130484Y229470D01*
X132968Y229378D01*
X135448Y229226D01*
X137923Y229014D01*
X140393Y228741D01*
X142855Y228407D01*
X145309Y228013D01*
X147752Y227560D01*
X150183Y227046D01*
X152601Y226474D01*
X155004Y225842D01*
X157391Y225152D01*
X159761Y224403D01*
X162111Y223597D01*
X164441Y222733D01*
X166749Y221813D01*
X169034Y220836D01*
X171294Y219804D01*
X173528Y218717D01*
X175736Y217575D01*
X177914Y216380D01*
X180062Y215132D01*
X182180Y213831D01*
X184265Y212480D01*
X186316Y211077D01*
X188332Y209625D01*
X190312Y208124D01*
X192255Y206574D01*
X194159Y204978D01*
X196024Y203336D01*
X197847Y201648D01*
X199629Y199916D01*
X201368Y198141D01*
X203064Y196325D01*
X204714Y194467D01*
X206318Y192569D01*
X207875Y190633D01*
X209384Y188659D01*
X210845Y186649D01*
X212256Y184603D01*
X213616Y182524D01*
X214925Y180412D01*
X216182Y178269D01*
X217387Y176095D01*
X218537Y173893D01*
X219634Y171663D01*
X220675Y169407D01*
X221661Y167126D01*
X222591Y164822D01*
X223464Y162495D01*
X224280Y160148D01*
X225038Y157782D01*
X225738Y155398D01*
X226380Y152997D01*
X226962Y150582D01*
X227486Y148153D01*
X227949Y145712D01*
X228353Y143260D01*
X228697Y140799D01*
X228980Y138330D01*
X229203Y135855D01*
X229365Y133376D01*
X229467Y130893D01*
X229507Y128409D01*
X229487Y125924D01*
X229406Y123440D01*
X229264Y120960D01*
X229062Y118483D01*
X228799Y116012D01*
X228475Y113549D01*
X228092Y111094D01*
X227648Y108649D01*
X227145Y106215D01*
X226582Y103795D01*
X225960Y101389D01*
X225280Y99000D01*
X224541Y96627D01*
X223744Y94274D01*
X222890Y91940D01*
X221979Y89628D01*
X221012Y87339D01*
X219989Y85075D01*
X218911Y82836D01*
X217779Y80624D01*
X216592Y78441D01*
X215353Y76287D01*
X214061Y74165D01*
X212718Y72074D01*
X211324Y70018D01*
X209880Y67995D01*
X208387Y66009D01*
X206845Y64060D01*
X205257Y62149D01*
X203622Y60278D01*
X201942Y58447D01*
X200218Y56658D01*
X198450Y54912D01*
X196640Y53209D01*
X194789Y51552D01*
X192898Y49940D01*
X190968Y48375D01*
X189000Y46857D01*
X186996Y45388D01*
X184956Y43969D01*
X182883Y42600D01*
X180776Y41282D01*
X178638Y40017D01*
X176469Y38803D01*
X174272Y37644D01*
X172046Y36538D01*
X169795Y35488D01*
X167518Y34492D01*
X165218Y33553D01*
X162895Y32670D01*
X160551Y31845D01*
X158188Y31077D01*
X155807Y30367D01*
X153409Y29716D01*
X150996Y29123D01*
X148569Y28590D01*
X146130Y28116D01*
X143679Y27702D01*
X141220Y27349D01*
X138752Y27055D01*
X136279Y26822D01*
X133800Y26650D01*
X109800Y28149D02*
X107362Y28624D01*
X104936Y29159D01*
X102524Y29753D01*
X100127Y30406D01*
X97748Y31117D01*
X95386Y31887D01*
X93043Y32714D01*
X90722Y33598D01*
X88423Y34538D01*
X86148Y35535D01*
X83897Y36586D01*
X81674Y37693D01*
X79478Y38854D01*
X77311Y40068D01*
X75174Y41335D01*
X73069Y42653D01*
X70997Y44023D01*
X68959Y45443D01*
X66956Y46913D01*
X64990Y48431D01*
X63062Y49996D01*
X61172Y51609D01*
X59323Y53267D01*
X57515Y54970D01*
X55749Y56717D01*
X54026Y58506D01*
X52347Y60337D01*
X50714Y62209D01*
X49127Y64120D01*
X47588Y66069D01*
X46096Y68055D01*
X44654Y70078D01*
X43261Y72135D01*
X41919Y74225D01*
X40629Y76348D01*
X39391Y78501D01*
X38206Y80684D01*
X37075Y82896D01*
X35999Y85134D01*
X34977Y87399D01*
X34012Y89687D01*
X33102Y91999D01*
X32250Y94332D01*
X31454Y96685D01*
X30717Y99057D01*
X30038Y101446D01*
X29417Y103851D01*
X28856Y106271D01*
X28354Y108704D01*
X27911Y111148D01*
X27529Y113602D01*
X27206Y116065D01*
X26944Y118535D01*
X26743Y121011D01*
X26602Y123491D01*
X26522Y125974D01*
X26503Y128457D01*
X26545Y130941D01*
X26647Y133423D01*
X26810Y135902D01*
X27033Y138375D01*
X27318Y140843D01*
X27662Y143303D01*
X28066Y145754D01*
X28531Y148194D01*
X29055Y150622D01*
X29638Y153037D01*
X30280Y155436D01*
X30981Y157819D01*
X31739Y160184D01*
X32556Y162530D01*
X33429Y164856D01*
X34359Y167159D01*
X35346Y169439D01*
X36387Y171694D01*
X37484Y173922D01*
X38635Y176124D01*
X39839Y178296D01*
X41096Y180438D01*
X42405Y182549D01*
X43766Y184628D01*
X45177Y186672D01*
X46637Y188681D01*
X48147Y190654D01*
X49704Y192589D01*
X51308Y194486D01*
X52958Y196343D01*
X54652Y198159D01*
X56391Y199933D01*
X58173Y201664D01*
X59996Y203350D01*
X61861Y204992D01*
X63764Y206587D01*
X65707Y208136D01*
X67686Y209636D01*
X69702Y211087D01*
X71753Y212489D01*
X73837Y213840D01*
X75954Y215140D01*
X78102Y216388D01*
X80280Y217582D01*
X82486Y218723D01*
X84720Y219810D01*
X86979Y220841D01*
X89263Y221817D01*
X91571Y222737D01*
X93900Y223600D01*
X96250Y224406D01*
X98618Y225154D01*
X101004Y225844D01*
X103407Y226475D01*
X105824Y227048D01*
X108254Y227561D01*
X110697Y228014D01*
X113149Y228408D01*
X115611Y228741D01*
X118080Y229014D01*
X120554Y229227D01*
X123034Y229378D01*
X125516Y229470D01*
X128000Y229500D01*
X128000Y222500D02*
X130304Y222472D01*
X132607Y222388D01*
X134907Y222247D01*
X137203Y222051D01*
X139493Y221798D01*
X141777Y221490D01*
X144052Y221127D01*
X146318Y220707D01*
X148572Y220233D01*
X150815Y219704D01*
X153044Y219121D01*
X155258Y218483D01*
X157456Y217791D01*
X159637Y217046D01*
X161798Y216248D01*
X163940Y215398D01*
X166060Y214496D01*
X168157Y213542D01*
X170231Y212537D01*
X172280Y211482D01*
X174302Y210378D01*
X176296Y209224D01*
X178262Y208022D01*
X180198Y206773D01*
X182103Y205477D01*
X183976Y204134D01*
X185816Y202747D01*
X187621Y201315D01*
X189391Y199839D01*
X191124Y198321D01*
X192819Y196761D01*
X194476Y195160D01*
X196094Y193519D01*
X197671Y191839D01*
X199207Y190121D01*
X200700Y188366D01*
X202150Y186575D01*
X203556Y184750D01*
X204917Y182891D01*
X206232Y180999D01*
X207501Y179075D01*
X208723Y177122D01*
X209896Y175139D01*
X211021Y173128D01*
X212096Y171090D01*
X213122Y169026D01*
X214096Y166939D01*
X215020Y164828D01*
X215892Y162695D01*
X216711Y160541D01*
X217478Y158368D01*
X218192Y156177D01*
X218852Y153970D01*
X219458Y151747D01*
X220009Y149510D01*
X220506Y147260D01*
X220948Y144998D01*
X221334Y142727D01*
X221665Y140446D01*
X221941Y138159D01*
X222160Y135865D01*
X222324Y133567D01*
X222431Y131265D01*
X222482Y128961D01*
X222477Y126657D01*
X222416Y124354D01*
X222299Y122053D01*
X222125Y119755D01*
X221896Y117462D01*
X221611Y115176D01*
X221270Y112897D01*
X220874Y110627D01*
X220422Y108368D01*
X219916Y106120D01*
X219354Y103885D01*
X218739Y101665D01*
X218069Y99460D01*
X217346Y97272D01*
X216570Y95102D01*
X215741Y92952D01*
X214860Y90823D01*
X213928Y88716D01*
X212944Y86633D01*
X211910Y84574D01*
X210825Y82541D01*
X209692Y80535D01*
X208510Y78557D01*
X207280Y76608D01*
X206003Y74690D01*
X204680Y72804D01*
X203311Y70951D01*
X201897Y69131D01*
X200439Y67347D01*
X198938Y65598D01*
X197395Y63887D01*
X195811Y62214D01*
X194186Y60580D01*
X192522Y58986D01*
X190820Y57434D01*
X189080Y55923D01*
X187304Y54455D01*
X185493Y53031D01*
X183647Y51651D01*
X181769Y50317D01*
X179858Y49029D01*
X177917Y47788D01*
X175946Y46594D01*
X173946Y45449D01*
X171919Y44354D01*
X169866Y43307D01*
X167788Y42312D01*
X165687Y41367D01*
X163563Y40474D01*
X161417Y39633D01*
X159252Y38844D01*
X157069Y38109D01*
X154868Y37426D01*
X152651Y36798D01*
X150419Y36224D01*
X148174Y35705D01*
X145918Y35240D01*
X143650Y34831D01*
X141373Y34477D01*
X139088Y34179D01*
X136797Y33936D01*
X134500Y33750D01*
X108350Y35549D02*
X106097Y36057D01*
X103857Y36619D01*
X101632Y37237D01*
X99423Y37908D01*
X97230Y38633D01*
X95056Y39411D01*
X92902Y40243D01*
X90768Y41126D01*
X88657Y42062D01*
X86569Y43049D01*
X84506Y44086D01*
X82469Y45174D01*
X80460Y46311D01*
X78478Y47497D01*
X76526Y48731D01*
X74605Y50012D01*
X72716Y51340D01*
X70859Y52714D01*
X69037Y54132D01*
X67250Y55595D01*
X65500Y57101D01*
X63786Y58649D01*
X62111Y60238D01*
X60476Y61868D01*
X58880Y63538D01*
X57326Y65246D01*
X55814Y66991D01*
X54345Y68773D01*
X52920Y70590D01*
X51540Y72442D01*
X50206Y74326D01*
X48918Y76243D01*
X47677Y78191D01*
X46484Y80168D01*
X45340Y82174D01*
X44246Y84207D01*
X43201Y86266D01*
X42207Y88351D01*
X41264Y90459D01*
X40373Y92589D01*
X39534Y94740D01*
X38748Y96912D01*
X38015Y99102D01*
X37336Y101309D01*
X36711Y103532D01*
X36141Y105769D01*
X35625Y108020D01*
X35165Y110283D01*
X34760Y112557D01*
X34411Y114839D01*
X34117Y117130D01*
X33880Y119427D01*
X33699Y121729D01*
X33574Y124035D01*
X33505Y126343D01*
X33493Y128652D01*
X33538Y130961D01*
X33638Y133268D01*
X33795Y135572D01*
X34009Y137871D01*
X34278Y140165D01*
X34604Y142451D01*
X34985Y144728D01*
X35421Y146996D01*
X35913Y149252D01*
X36460Y151496D01*
X37062Y153725D01*
X37718Y155939D01*
X38427Y158137D01*
X39191Y160316D01*
X40007Y162476D01*
X40876Y164616D01*
X41797Y166733D01*
X42769Y168828D01*
X43792Y170898D01*
X44865Y172943D01*
X45988Y174960D01*
X47160Y176950D01*
X48381Y178911D01*
X49649Y180841D01*
X50963Y182739D01*
X52324Y184605D01*
X53730Y186437D01*
X55180Y188234D01*
X56673Y189995D01*
X58209Y191719D01*
X59787Y193405D01*
X61406Y195053D01*
X63064Y196660D01*
X64761Y198226D01*
X66496Y199750D01*
X68268Y201231D01*
X70075Y202668D01*
X71917Y204061D01*
X73792Y205409D01*
X75700Y206710D01*
X77638Y207964D01*
X79607Y209171D01*
X81605Y210329D01*
X83631Y211438D01*
X85683Y212497D01*
X87760Y213506D01*
X89861Y214463D01*
X91985Y215369D01*
X94131Y216223D01*
X96297Y217024D01*
X98482Y217772D01*
X100684Y218467D01*
X102903Y219107D01*
X105136Y219693D01*
X107383Y220224D01*
X109643Y220700D01*
X111914Y221121D01*
X114194Y221486D01*
X116482Y221796D01*
X118777Y222049D01*
X121078Y222246D01*
X123383Y222387D01*
X125691Y222472D01*
X128000Y222500D01*
X128000Y215500D02*
X130143Y215474D01*
X132285Y215395D01*
X134424Y215264D01*
X136559Y215080D01*
X138689Y214845D01*
X140813Y214557D01*
X142929Y214217D01*
X145036Y213825D01*
X147133Y213382D01*
X149218Y212888D01*
X151291Y212343D01*
X153349Y211747D01*
X155393Y211101D01*
X157420Y210405D01*
X159429Y209660D01*
X161420Y208865D01*
X163390Y208023D01*
X165339Y207132D01*
X167266Y206193D01*
X169169Y205208D01*
X171048Y204177D01*
X172900Y203099D01*
X174726Y201977D01*
X176524Y200810D01*
X178292Y199600D01*
X180031Y198347D01*
X181738Y197051D01*
X183413Y195714D01*
X185054Y194337D01*
X186662Y192919D01*
X188234Y191463D01*
X189770Y189968D01*
X191269Y188437D01*
X192730Y186869D01*
X194152Y185266D01*
X195535Y183628D01*
X196877Y181957D01*
X198178Y180254D01*
X199436Y178520D01*
X200652Y176755D01*
X201824Y174960D01*
X202952Y173138D01*
X204035Y171289D01*
X205072Y169413D01*
X206063Y167513D01*
X207007Y165589D01*
X207904Y163643D01*
X208752Y161675D01*
X209553Y159687D01*
X210304Y157680D01*
X211006Y155655D01*
X211658Y153613D01*
X212260Y151557D01*
X212812Y149486D01*
X213312Y147402D01*
X213762Y145306D01*
X214159Y143201D01*
X214506Y141086D01*
X214800Y138963D01*
X215042Y136834D01*
X215232Y134699D01*
X215370Y132560D01*
X215455Y130419D01*
X215488Y128276D01*
X215468Y126133D01*
X215396Y123991D01*
X215271Y121852D01*
X215094Y119716D01*
X214864Y117585D01*
X214583Y115461D01*
X214250Y113344D01*
X213864Y111235D01*
X213428Y109137D01*
X212940Y107050D01*
X212401Y104976D01*
X211811Y102916D01*
X211171Y100870D01*
X210482Y98841D01*
X209742Y96830D01*
X208954Y94837D01*
X208117Y92864D01*
X207232Y90912D01*
X206300Y88983D01*
X205320Y87076D01*
X204294Y85195D01*
X203223Y83339D01*
X202106Y81510D01*
X200945Y79709D01*
X199740Y77936D01*
X198492Y76194D01*
X197201Y74483D01*
X195869Y72804D01*
X194497Y71158D01*
X193084Y69547D01*
X191633Y67970D01*
X190143Y66429D01*
X188616Y64926D01*
X187052Y63460D01*
X185454Y62033D01*
X183820Y60645D01*
X182153Y59298D01*
X180454Y57993D01*
X178723Y56729D01*
X176962Y55508D01*
X175171Y54330D01*
X173352Y53197D01*
X171506Y52108D01*
X169634Y51066D01*
X167737Y50069D01*
X165816Y49119D01*
X163872Y48216D01*
X161907Y47362D01*
X159921Y46555D01*
X157916Y45798D01*
X155894Y45090D01*
X153854Y44431D01*
X151799Y43823D01*
X149730Y43266D01*
X147648Y42759D01*
X145554Y42303D01*
X143449Y41899D01*
X141335Y41546D01*
X139213Y41246D01*
X137085Y40997D01*
X134950Y40801D01*
X107050Y43049D02*
X104986Y43585D01*
X102936Y44171D01*
X100901Y44806D01*
X98882Y45491D01*
X96880Y46225D01*
X94897Y47008D01*
X92933Y47838D01*
X90990Y48717D01*
X89069Y49642D01*
X87171Y50614D01*
X85298Y51632D01*
X83450Y52695D01*
X81628Y53803D01*
X79834Y54955D01*
X78068Y56150D01*
X76333Y57388D01*
X74627Y58668D01*
X72954Y59989D01*
X71313Y61350D01*
X69706Y62751D01*
X68133Y64191D01*
X66596Y65668D01*
X65096Y67183D01*
X63632Y68734D01*
X62207Y70320D01*
X60821Y71940D01*
X59475Y73594D01*
X58170Y75279D01*
X56906Y76996D01*
X55684Y78744D01*
X54506Y80521D01*
X53371Y82325D01*
X52280Y84157D01*
X51234Y86015D01*
X50234Y87898D01*
X49280Y89805D01*
X48372Y91734D01*
X47512Y93685D01*
X46700Y95657D01*
X45936Y97647D01*
X45221Y99656D01*
X44555Y101681D01*
X43938Y103722D01*
X43372Y105778D01*
X42855Y107846D01*
X42389Y109927D01*
X41974Y112018D01*
X41610Y114119D01*
X41298Y116228D01*
X41037Y118344D01*
X40827Y120466D01*
X40669Y122592D01*
X40564Y124722D01*
X40510Y126853D01*
X40508Y128985D01*
X40557Y131117D01*
X40659Y133246D01*
X40813Y135373D01*
X41018Y137495D01*
X41276Y139612D01*
X41584Y141721D01*
X41944Y143823D01*
X42355Y145915D01*
X42817Y147996D01*
X43330Y150066D01*
X43892Y152122D01*
X44505Y154165D01*
X45167Y156191D01*
X45879Y158201D01*
X46639Y160193D01*
X47447Y162166D01*
X48304Y164119D01*
X49207Y166050D01*
X50158Y167958D01*
X51155Y169843D01*
X52197Y171703D01*
X53284Y173537D01*
X54416Y175344D01*
X55591Y177123D01*
X56810Y178873D01*
X58070Y180592D01*
X59372Y182280D01*
X60715Y183936D01*
X62098Y185559D01*
X63520Y187148D01*
X64980Y188701D01*
X66478Y190219D01*
X68012Y191699D01*
X69582Y193142D01*
X71187Y194546D01*
X72825Y195911D01*
X74496Y197235D01*
X76199Y198518D01*
X77932Y199759D01*
X79696Y200958D01*
X81487Y202113D01*
X83307Y203225D01*
X85153Y204291D01*
X87025Y205313D01*
X88921Y206288D01*
X90840Y207217D01*
X92781Y208099D01*
X94743Y208933D01*
X96725Y209720D01*
X98725Y210457D01*
X100743Y211146D01*
X102777Y211786D01*
X104826Y212375D01*
X106889Y212915D01*
X108964Y213404D01*
X111050Y213843D01*
X113147Y214230D01*
X115252Y214566D01*
X117365Y214851D01*
X119485Y215085D01*
X121609Y215266D01*
X123737Y215396D01*
X125868Y215474D01*
X128000Y215500D01*
X128000Y208500D02*
X129963Y208476D01*
X131925Y208404D01*
X133885Y208285D01*
X135841Y208117D01*
X137793Y207902D01*
X139739Y207639D01*
X141678Y207330D01*
X143608Y206972D01*
X145530Y206568D01*
X147440Y206117D01*
X149340Y205620D01*
X151226Y205076D01*
X153099Y204487D01*
X154957Y203852D01*
X156799Y203172D01*
X158624Y202447D01*
X160430Y201678D01*
X162218Y200865D01*
X163985Y200009D01*
X165730Y199110D01*
X167453Y198169D01*
X169153Y197186D01*
X170828Y196162D01*
X172477Y195097D01*
X174100Y193992D01*
X175696Y192848D01*
X177263Y191666D01*
X178801Y190445D01*
X180309Y189188D01*
X181786Y187894D01*
X183231Y186564D01*
X184642Y185200D01*
X186021Y183801D01*
X187364Y182369D01*
X188672Y180905D01*
X189945Y179410D01*
X191180Y177884D01*
X192378Y176328D01*
X193537Y174744D01*
X194658Y173131D01*
X195739Y171492D01*
X196779Y169827D01*
X197779Y168137D01*
X198737Y166424D01*
X199653Y164687D01*
X200526Y162929D01*
X201357Y161149D01*
X202143Y159350D01*
X202886Y157533D01*
X203584Y155698D01*
X204237Y153846D01*
X204844Y151979D01*
X205406Y150098D01*
X205922Y148203D01*
X206391Y146297D01*
X206814Y144380D01*
X207190Y142453D01*
X207519Y140517D01*
X207801Y138574D01*
X208035Y136624D01*
X208221Y134670D01*
X208360Y132711D01*
X208451Y130750D01*
X208494Y128787D01*
X208489Y126824D01*
X208437Y124861D01*
X208336Y122900D01*
X208188Y120942D01*
X207992Y118989D01*
X207748Y117041D01*
X207457Y115099D01*
X207119Y113165D01*
X206733Y111240D01*
X206301Y109324D01*
X205822Y107420D01*
X205297Y105528D01*
X204726Y103650D01*
X204109Y101786D01*
X203447Y99938D01*
X202741Y98106D01*
X201989Y96292D01*
X201194Y94497D01*
X200355Y92722D01*
X199473Y90967D01*
X198548Y89235D01*
X197582Y87526D01*
X196574Y85841D01*
X195525Y84181D01*
X194437Y82548D01*
X193308Y80941D01*
X192141Y79362D01*
X190936Y77812D01*
X189693Y76292D01*
X188413Y74803D01*
X187098Y73345D01*
X185747Y71920D01*
X184362Y70529D01*
X182944Y69171D01*
X181493Y67848D01*
X180010Y66562D01*
X178496Y65312D01*
X176952Y64099D01*
X175379Y62924D01*
X173778Y61788D01*
X172149Y60691D01*
X170494Y59634D01*
X168814Y58618D01*
X167110Y57643D01*
X165382Y56710D01*
X163632Y55820D01*
X161861Y54972D01*
X160070Y54168D01*
X158260Y53408D01*
X156432Y52692D01*
X154587Y52021D01*
X152726Y51395D01*
X150850Y50815D01*
X148961Y50281D01*
X147059Y49793D01*
X145146Y49351D01*
X143222Y48956D01*
X141290Y48609D01*
X139350Y48308D01*
X137403Y48055D01*
X135450Y47849D01*
X106250Y50500D02*
X104357Y51057D01*
X102478Y51659D01*
X100614Y52308D01*
X98767Y53002D01*
X96938Y53741D01*
X95127Y54524D01*
X93336Y55352D01*
X91565Y56224D01*
X89817Y57138D01*
X88091Y58095D01*
X86390Y59095D01*
X84714Y60135D01*
X83063Y61216D01*
X81440Y62338D01*
X79844Y63499D01*
X78278Y64699D01*
X76741Y65936D01*
X75235Y67211D01*
X73761Y68523D01*
X72319Y69870D01*
X70911Y71252D01*
X69537Y72669D01*
X68199Y74118D01*
X66896Y75600D01*
X65630Y77114D01*
X64401Y78658D01*
X63211Y80231D01*
X62060Y81834D01*
X60948Y83464D01*
X59876Y85120D01*
X58846Y86803D01*
X57857Y88510D01*
X56910Y90242D01*
X56005Y91995D01*
X55145Y93771D01*
X54327Y95567D01*
X53554Y97382D01*
X52826Y99216D01*
X52143Y101067D01*
X51506Y102935D01*
X50914Y104817D01*
X50369Y106713D01*
X49871Y108623D01*
X49419Y110543D01*
X49015Y112475D01*
X48658Y114415D01*
X48349Y116364D01*
X48088Y118320D01*
X47874Y120281D01*
X47709Y122248D01*
X47592Y124217D01*
X47523Y126189D01*
X47503Y128162D01*
X47531Y130135D01*
X47608Y132107D01*
X47732Y134076D01*
X47905Y136042D01*
X48126Y138002D01*
X48396Y139957D01*
X48712Y141905D01*
X49077Y143844D01*
X49489Y145773D01*
X49948Y147692D01*
X50454Y149600D01*
X51007Y151494D01*
X51606Y153374D01*
X52251Y155239D01*
X52941Y157087D01*
X53676Y158918D01*
X54456Y160731D01*
X55281Y162523D01*
X56148Y164295D01*
X57060Y166045D01*
X58013Y167773D01*
X59009Y169476D01*
X60046Y171155D01*
X61124Y172807D01*
X62243Y174433D01*
X63400Y176031D01*
X64597Y177600D01*
X65832Y179139D01*
X67104Y180647D01*
X68412Y182124D01*
X69757Y183568D01*
X71136Y184979D01*
X72550Y186356D01*
X73997Y187697D01*
X75476Y189003D01*
X76987Y190272D01*
X78529Y191504D01*
X80100Y192697D01*
X81700Y193852D01*
X83328Y194967D01*
X84982Y196042D01*
X86663Y197076D01*
X88368Y198068D01*
X90098Y199018D01*
X91850Y199926D01*
X93623Y200790D01*
X95418Y201611D01*
X97232Y202388D01*
X99064Y203119D01*
X100914Y203806D01*
X102780Y204447D01*
X104661Y205042D01*
X106556Y205591D01*
X108465Y206094D01*
X110385Y206549D01*
X112315Y206957D01*
X114255Y207318D01*
X116203Y207631D01*
X118158Y207896D01*
X120119Y208113D01*
X122085Y208282D01*
X124055Y208403D01*
X126027Y208476D01*
X128000Y208500D01*
X122510Y55191D02*
X121311Y55042D01*
X120117Y54864D01*
X118927Y54656D01*
X117742Y54419D01*
X116564Y54154D01*
X115393Y53860D01*
X114229Y53537D01*
X113073Y53187D01*
X111926Y52808D01*
X110789Y52401D01*
X109662Y51966D01*
X108546Y51505D01*
X107442Y51016D01*
X106350Y50500D01*
D16*
X133700Y55700D03*
X249500Y178000D03*
X104550Y58950D03*
D15*
X103000Y60500D01*
X103000Y90125D01*
X103000Y98125D01*
X103000Y106125D01*
X103000Y98125D02*
X122500Y98125D01*
D14*
X152250Y110375D02*
X154000Y108625D01*
X152250Y110375D02*
X152250Y113775D01*
X150400Y115625D01*
X144500Y115625D01*
X144500Y125625D02*
X144730Y125855D01*
X153230Y125855D01*
X154000Y126625D01*
X148380Y130625D02*
X144500Y130625D01*
X148380Y130625D02*
X151630Y133875D01*
X154000Y133875D01*
D16*
X156000Y119000D03*
D17*
X154375Y120625D02*
X144500Y120625D01*
X154375Y120625D02*
X156000Y119000D01*
D18*
X229600Y256000D03*
D19*
X154000Y264500D02*
X154000Y277000D01*
X222000Y277000D01*
X222725Y276991D01*
X223449Y276965D01*
X224173Y276921D01*
X224895Y276860D01*
X225616Y276781D01*
X226335Y276685D01*
X227051Y276572D01*
X227764Y276441D01*
X228474Y276293D01*
X229179Y276128D01*
X229881Y275946D01*
X230578Y275747D01*
X231271Y275532D01*
X231957Y275299D01*
X232638Y275050D01*
X233313Y274785D01*
X233981Y274504D01*
X234642Y274206D01*
X235296Y273893D01*
X235942Y273564D01*
X236580Y273219D01*
X237209Y272859D01*
X237829Y272484D01*
X238440Y272094D01*
X239042Y271690D01*
X239634Y271271D01*
X240215Y270837D01*
X240786Y270390D01*
X241345Y269929D01*
X241894Y269455D01*
X242430Y268968D01*
X242955Y268468D01*
X243468Y267955D01*
X243968Y267430D01*
X244455Y266894D01*
X244929Y266345D01*
X245390Y265786D01*
X245837Y265215D01*
X246271Y264634D01*
X246690Y264042D01*
X247094Y263440D01*
X247484Y262829D01*
X247859Y262209D01*
X248219Y261580D01*
X248564Y260942D01*
X248893Y260296D01*
X249206Y259642D01*
X249504Y258981D01*
X249785Y258313D01*
X250050Y257638D01*
X250299Y256957D01*
X250532Y256271D01*
X250747Y255578D01*
X250946Y254881D01*
X251128Y254179D01*
X251293Y253474D01*
X251441Y252764D01*
X251572Y252051D01*
X251685Y251335D01*
X251781Y250616D01*
X251860Y249895D01*
X251921Y249173D01*
X251965Y248449D01*
X251991Y247725D01*
X252000Y247000D01*
X252000Y190800D01*
X250454Y193764D01*
X248837Y196690D01*
X247151Y199576D01*
X245395Y202421D01*
X243571Y205223D01*
X241681Y207980D01*
X239724Y210691D01*
X237703Y213354D01*
X235619Y215968D01*
X233472Y218530D01*
X231265Y221041D01*
X228997Y223498D01*
X226671Y225899D01*
X224289Y228244D01*
X221850Y230530D01*
X219357Y232758D01*
X216811Y234925D01*
X214214Y237030D01*
X211567Y239072D01*
X208872Y241049D01*
X206130Y242962D01*
X203342Y244807D01*
X200512Y246586D01*
X197639Y248295D01*
X194726Y249935D01*
X191774Y251505D01*
X188785Y253003D01*
X185762Y254429D01*
X182704Y255781D01*
X179616Y257060D01*
X176497Y258264D01*
X173350Y259393D01*
X170177Y260446D01*
X166980Y261422D01*
X163760Y262321D01*
X160519Y263142D01*
X157260Y263885D01*
X153983Y264549D01*
D15*
X165500Y263500D02*
X209000Y257500D01*
X244500Y225500D01*
X250000Y197500D01*
X239000Y226000D01*
X206500Y254500D01*
X178000Y260000D01*
X207500Y249500D01*
X237000Y221500D01*
X243500Y208500D01*
X230500Y226000D01*
X212000Y241500D01*
X194500Y252500D01*
D20*
X153400Y164500D03*
D14*
X140700Y177425D02*
X139000Y179125D01*
X140700Y177425D02*
X140700Y172825D01*
X139000Y171125D01*
X140700Y169425D01*
X140700Y164825D01*
X139000Y163125D01*
X139000Y161400D01*
X147900Y161400D01*
X154000Y163900D02*
X154000Y148250D01*
X154000Y163900D02*
X153400Y164500D01*
D16*
X97500Y120425D03*
D14*
X93286Y120425D01*
X92000Y119151D01*
X92000Y114125D01*
D19*
X102000Y264500D02*
X102000Y264536D01*
X102000Y264537D02*
X102004Y264543D01*
X102010Y264547D01*
X102017Y264550D01*
D15*
X90500Y263500D02*
X47000Y257500D01*
X11500Y225500D01*
X6000Y197500D01*
X17000Y226000D01*
X49500Y254500D01*
X78000Y260000D01*
X48500Y249500D01*
X19000Y221500D01*
X12500Y208500D01*
X25500Y226000D01*
X44000Y241500D01*
X61500Y252500D01*
D19*
X102017Y264449D02*
X98742Y263787D01*
X95484Y263047D01*
X92244Y262228D01*
X89025Y261332D01*
X85829Y260358D01*
X82657Y259308D01*
X79511Y258182D01*
X76393Y256980D01*
X73305Y255704D01*
X70248Y254354D01*
X67225Y252931D01*
X64237Y251436D01*
X61285Y249869D01*
X58373Y248232D01*
X55500Y246525D01*
X52669Y244749D01*
X49882Y242906D01*
X47140Y240997D01*
X44445Y239022D01*
X41798Y236983D01*
X39201Y234880D01*
X36655Y232716D01*
X34162Y230491D01*
X31723Y228207D01*
X29340Y225865D01*
X27013Y223467D01*
X24746Y221013D01*
X22537Y218505D01*
X20390Y215945D01*
X18305Y213334D01*
X16283Y210673D01*
X14326Y207965D01*
X12435Y205210D01*
X10610Y202411D01*
X8853Y199569D01*
X7165Y196685D01*
X5547Y193762D01*
X4000Y190800D01*
D18*
X26400Y256000D03*
D20*
X102600Y164500D03*
D14*
X128000Y171125D02*
X128000Y179125D01*
X128000Y171125D02*
X128000Y163125D01*
X128000Y154450D01*
X140175Y145625D02*
X144500Y145625D01*
X140175Y145625D02*
X135400Y140850D01*
X94725Y150850D02*
X93000Y149125D01*
X101100Y150850D02*
X101750Y151500D01*
X101100Y150850D02*
X94725Y150850D01*
X100000Y153250D02*
X100000Y157500D01*
X100000Y153250D02*
X101750Y151500D01*
X100000Y157500D02*
X102500Y160000D01*
D16*
X128000Y138500D03*
X128000Y117500D03*
X133500Y128000D03*
X122500Y128000D03*
D14*
X97000Y156876D02*
X97000Y157000D01*
X97000Y156876D02*
X106200Y156876D01*
X98350Y145625D02*
X93850Y141125D01*
X93000Y141125D01*
X98350Y145625D02*
X111500Y145625D01*
X111500Y135625D02*
X111200Y135325D01*
X85950Y135325D01*
X82000Y139275D01*
X82000Y141125D01*
X83700Y147425D02*
X82000Y149125D01*
X83700Y147425D02*
X83700Y142825D01*
X82000Y141125D01*
X91000Y90125D02*
X92000Y90125D01*
X80654Y100471D02*
X80654Y122529D01*
X90250Y132125D01*
X104900Y132125D01*
X106400Y130625D02*
X111500Y130625D01*
X80654Y100471D02*
X91000Y90125D01*
X106400Y130625D02*
X104900Y132125D01*
X92000Y98125D02*
X91000Y98125D01*
X83802Y105323D02*
X83802Y120927D01*
X91850Y128975D01*
X103200Y128975D01*
X106550Y125625D02*
X111500Y125625D01*
X91000Y98125D02*
X83802Y105323D01*
X106550Y125625D02*
X103200Y128975D01*
X92000Y106125D02*
X91000Y106125D01*
X87000Y110125D01*
X87000Y119375D01*
X93500Y125875D01*
X101250Y125875D01*
X106500Y120625D01*
X111500Y120625D01*
X104500Y115625D02*
X103000Y114125D01*
X104500Y115625D02*
X111500Y115625D01*
X101750Y140500D02*
X101875Y140625D01*
X111500Y140625D01*
X165000Y141000D02*
X165000Y148250D01*
X154000Y141000D02*
X153039Y141000D01*
X147664Y135625D01*
X144500Y135625D01*
M02*
