G04 EAGLE Gerber RS-274X export*
G75*
%MOMM*%
%FSLAX34Y34*%
%LPD*%
%IN*%
%IPPOS*%
%AMOC8*
5,1,8,0,0,1.08239X$1,22.5*%
G01*
%ADD10C,0.000000*%
%ADD11C,0.254000*%


D10*
X256000Y128000D02*
X256000Y251000D01*
X255991Y251725D01*
X255965Y252449D01*
X255921Y253173D01*
X255860Y253895D01*
X255781Y254616D01*
X255685Y255335D01*
X255572Y256051D01*
X255441Y256764D01*
X255293Y257474D01*
X255128Y258179D01*
X254946Y258881D01*
X254747Y259578D01*
X254532Y260271D01*
X254299Y260957D01*
X254050Y261638D01*
X253785Y262313D01*
X253504Y262981D01*
X253206Y263642D01*
X252893Y264296D01*
X252564Y264942D01*
X252219Y265580D01*
X251859Y266209D01*
X251484Y266829D01*
X251094Y267440D01*
X250690Y268042D01*
X250271Y268634D01*
X249837Y269215D01*
X249390Y269786D01*
X248929Y270345D01*
X248455Y270894D01*
X247968Y271430D01*
X247468Y271955D01*
X246955Y272468D01*
X246430Y272968D01*
X245894Y273455D01*
X245345Y273929D01*
X244786Y274390D01*
X244215Y274837D01*
X243634Y275271D01*
X243042Y275690D01*
X242440Y276094D01*
X241829Y276484D01*
X241209Y276859D01*
X240580Y277219D01*
X239942Y277564D01*
X239296Y277893D01*
X238642Y278206D01*
X237981Y278504D01*
X237313Y278785D01*
X236638Y279050D01*
X235957Y279299D01*
X235271Y279532D01*
X234578Y279747D01*
X233881Y279946D01*
X233179Y280128D01*
X232474Y280293D01*
X231764Y280441D01*
X231051Y280572D01*
X230335Y280685D01*
X229616Y280781D01*
X228895Y280860D01*
X228173Y280921D01*
X227449Y280965D01*
X226725Y280991D01*
X226000Y281000D01*
X30000Y281000D01*
X29275Y280991D01*
X28551Y280965D01*
X27827Y280921D01*
X27105Y280860D01*
X26384Y280781D01*
X25665Y280685D01*
X24949Y280572D01*
X24236Y280441D01*
X23526Y280293D01*
X22821Y280128D01*
X22119Y279946D01*
X21422Y279747D01*
X20729Y279532D01*
X20043Y279299D01*
X19362Y279050D01*
X18687Y278785D01*
X18019Y278504D01*
X17358Y278206D01*
X16704Y277893D01*
X16058Y277564D01*
X15420Y277219D01*
X14791Y276859D01*
X14171Y276484D01*
X13560Y276094D01*
X12958Y275690D01*
X12366Y275271D01*
X11785Y274837D01*
X11214Y274390D01*
X10655Y273929D01*
X10106Y273455D01*
X9570Y272968D01*
X9045Y272468D01*
X8532Y271955D01*
X8032Y271430D01*
X7545Y270894D01*
X7071Y270345D01*
X6610Y269786D01*
X6163Y269215D01*
X5729Y268634D01*
X5310Y268042D01*
X4906Y267440D01*
X4516Y266829D01*
X4141Y266209D01*
X3781Y265580D01*
X3436Y264942D01*
X3107Y264296D01*
X2794Y263642D01*
X2496Y262981D01*
X2215Y262313D01*
X1950Y261638D01*
X1701Y260957D01*
X1468Y260271D01*
X1253Y259578D01*
X1054Y258881D01*
X872Y258179D01*
X707Y257474D01*
X559Y256764D01*
X428Y256051D01*
X315Y255335D01*
X219Y254616D01*
X140Y253895D01*
X79Y253173D01*
X35Y252449D01*
X9Y251725D01*
X0Y251000D01*
X0Y128000D01*
X37Y124907D01*
X149Y121816D01*
X336Y118728D01*
X598Y115646D01*
X933Y112571D01*
X1343Y109505D01*
X1827Y106450D01*
X2385Y103408D01*
X3016Y100380D01*
X3719Y97368D01*
X4496Y94373D01*
X5345Y91399D01*
X6265Y88446D01*
X7256Y85516D01*
X8318Y82611D01*
X9450Y79732D01*
X10651Y76881D01*
X11920Y74061D01*
X13257Y71271D01*
X14662Y68515D01*
X16132Y65794D01*
X17668Y63109D01*
X19268Y60462D01*
X20932Y57854D01*
X22658Y55288D01*
X24446Y52763D01*
X26294Y50283D01*
X28202Y47848D01*
X30168Y45460D01*
X32191Y43120D01*
X34270Y40830D01*
X36403Y38591D01*
X38591Y36403D01*
X40830Y34270D01*
X43120Y32191D01*
X45460Y30168D01*
X47848Y28202D01*
X50283Y26294D01*
X52763Y24446D01*
X55288Y22658D01*
X57854Y20932D01*
X60462Y19268D01*
X63109Y17668D01*
X65794Y16132D01*
X68515Y14662D01*
X71271Y13257D01*
X74061Y11920D01*
X76881Y10651D01*
X79732Y9450D01*
X82611Y8318D01*
X85516Y7256D01*
X88446Y6265D01*
X91399Y5345D01*
X94373Y4496D01*
X97368Y3719D01*
X100380Y3016D01*
X103408Y2385D01*
X106450Y1827D01*
X109505Y1343D01*
X112571Y933D01*
X115646Y598D01*
X118728Y336D01*
X121816Y149D01*
X124907Y37D01*
X128000Y0D01*
X131093Y37D01*
X134184Y149D01*
X137272Y336D01*
X140354Y598D01*
X143429Y933D01*
X146495Y1343D01*
X149550Y1827D01*
X152592Y2385D01*
X155620Y3016D01*
X158632Y3719D01*
X161627Y4496D01*
X164601Y5345D01*
X167554Y6265D01*
X170484Y7256D01*
X173389Y8318D01*
X176268Y9450D01*
X179119Y10651D01*
X181939Y11920D01*
X184729Y13257D01*
X187485Y14662D01*
X190206Y16132D01*
X192891Y17668D01*
X195538Y19268D01*
X198146Y20932D01*
X200712Y22658D01*
X203237Y24446D01*
X205717Y26294D01*
X208152Y28202D01*
X210540Y30168D01*
X212880Y32191D01*
X215170Y34270D01*
X217409Y36403D01*
X219597Y38591D01*
X221730Y40830D01*
X223809Y43120D01*
X225832Y45460D01*
X227798Y47848D01*
X229706Y50283D01*
X231554Y52763D01*
X233342Y55288D01*
X235068Y57854D01*
X236732Y60462D01*
X238332Y63109D01*
X239868Y65794D01*
X241338Y68515D01*
X242743Y71271D01*
X244080Y74061D01*
X245349Y76881D01*
X246550Y79732D01*
X247682Y82611D01*
X248744Y85516D01*
X249735Y88446D01*
X250655Y91399D01*
X251504Y94373D01*
X252281Y97368D01*
X252984Y100380D01*
X253615Y103408D01*
X254173Y106450D01*
X254657Y109505D01*
X255067Y112571D01*
X255402Y115646D01*
X255664Y118728D01*
X255851Y121816D01*
X255963Y124907D01*
X256000Y128000D01*
D11*
X0Y128000D02*
X487Y116844D01*
X1945Y105773D01*
X4362Y94871D01*
X7719Y84221D01*
X11993Y73905D01*
X17149Y64000D01*
X23149Y54582D01*
X29946Y45723D01*
X37490Y37490D01*
X45723Y29946D01*
X54582Y23149D01*
X64000Y17149D01*
X73905Y11993D01*
X84221Y7719D01*
X94871Y4362D01*
X105773Y1945D01*
X116844Y487D01*
X128000Y0D01*
X139156Y487D01*
X150227Y1945D01*
X161129Y4361D01*
X171779Y7719D01*
X182095Y11993D01*
X192000Y17149D01*
X201418Y23149D01*
X210277Y29946D01*
X218510Y37490D01*
X226054Y45723D01*
X232851Y54582D01*
X238851Y64000D01*
X244007Y73905D01*
X248281Y84221D01*
X251639Y94871D01*
X254055Y105773D01*
X255513Y116844D01*
X256000Y128000D01*
X256000Y251000D01*
X255886Y253615D01*
X255544Y256209D01*
X254978Y258765D01*
X254191Y261261D01*
X253189Y263679D01*
X251981Y266000D01*
X250575Y268207D01*
X248981Y270284D01*
X247213Y272213D01*
X245284Y273981D01*
X243207Y275575D01*
X241000Y276981D01*
X238679Y278189D01*
X236261Y279191D01*
X233765Y279978D01*
X231209Y280544D01*
X228615Y280886D01*
X226000Y281000D01*
X30000Y281000D01*
X27385Y280886D01*
X24791Y280544D01*
X22235Y279978D01*
X19739Y279191D01*
X17321Y278189D01*
X15000Y276981D01*
X12793Y275575D01*
X10716Y273981D01*
X8787Y272213D01*
X7019Y270284D01*
X5425Y268207D01*
X4019Y266000D01*
X2811Y263679D01*
X1809Y261261D01*
X1022Y258765D01*
X456Y256209D01*
X114Y253615D01*
X0Y251000D01*
X0Y128000D01*
M02*
