G04 EAGLE Gerber RS-274X export*
G75*
%MOMM*%
%FSLAX34Y34*%
%LPD*%
%INSilkscreen Top*%
%IPPOS*%
%AMOC8*
5,1,8,0,0,1.08239X$1,22.5*%
G01*
%ADD10C,0.300000*%
%ADD11C,0.076200*%


D10*
X107000Y269000D02*
X123000Y269000D01*
X133000Y269000D02*
X149000Y269000D01*
X141000Y277000D02*
X141000Y260500D01*
X94500Y178000D02*
X78500Y178000D01*
X162000Y178000D02*
X178000Y178000D01*
X170000Y186000D02*
X170000Y169500D01*
D11*
X114015Y87756D02*
X113073Y87756D01*
X113014Y87758D01*
X112955Y87763D01*
X112896Y87773D01*
X112839Y87786D01*
X112782Y87802D01*
X112726Y87822D01*
X112672Y87846D01*
X112619Y87873D01*
X112568Y87903D01*
X112519Y87936D01*
X112473Y87972D01*
X112428Y88011D01*
X112386Y88053D01*
X112347Y88098D01*
X112311Y88144D01*
X112278Y88193D01*
X112248Y88244D01*
X112221Y88297D01*
X112197Y88351D01*
X112177Y88407D01*
X112161Y88464D01*
X112148Y88521D01*
X112138Y88580D01*
X112133Y88639D01*
X112131Y88698D01*
X112131Y91052D01*
X112133Y91111D01*
X112138Y91170D01*
X112148Y91229D01*
X112161Y91286D01*
X112177Y91343D01*
X112197Y91399D01*
X112221Y91453D01*
X112248Y91506D01*
X112278Y91557D01*
X112311Y91606D01*
X112347Y91652D01*
X112386Y91697D01*
X112428Y91739D01*
X112473Y91778D01*
X112519Y91814D01*
X112568Y91847D01*
X112619Y91877D01*
X112672Y91904D01*
X112726Y91928D01*
X112782Y91948D01*
X112839Y91964D01*
X112896Y91977D01*
X112955Y91987D01*
X113014Y91992D01*
X113073Y91994D01*
X114015Y91994D01*
X115900Y91052D02*
X117077Y91994D01*
X117077Y87756D01*
X115900Y87756D02*
X118254Y87756D01*
X114879Y160506D02*
X113937Y160506D01*
X113878Y160508D01*
X113819Y160513D01*
X113760Y160523D01*
X113703Y160536D01*
X113646Y160552D01*
X113590Y160572D01*
X113536Y160596D01*
X113483Y160623D01*
X113432Y160653D01*
X113383Y160686D01*
X113337Y160722D01*
X113292Y160761D01*
X113250Y160803D01*
X113211Y160848D01*
X113175Y160894D01*
X113142Y160943D01*
X113112Y160994D01*
X113085Y161047D01*
X113061Y161101D01*
X113041Y161157D01*
X113025Y161214D01*
X113012Y161271D01*
X113002Y161330D01*
X112997Y161389D01*
X112995Y161448D01*
X112996Y161448D02*
X112996Y163802D01*
X112995Y163802D02*
X112997Y163861D01*
X113002Y163920D01*
X113012Y163979D01*
X113025Y164036D01*
X113041Y164093D01*
X113061Y164149D01*
X113085Y164203D01*
X113112Y164256D01*
X113142Y164307D01*
X113175Y164356D01*
X113211Y164402D01*
X113250Y164447D01*
X113292Y164489D01*
X113337Y164528D01*
X113383Y164564D01*
X113432Y164597D01*
X113483Y164627D01*
X113536Y164654D01*
X113590Y164678D01*
X113646Y164698D01*
X113703Y164714D01*
X113760Y164727D01*
X113819Y164737D01*
X113878Y164742D01*
X113937Y164744D01*
X114879Y164744D01*
X116765Y163802D02*
X117942Y164744D01*
X117942Y160506D01*
X116765Y160506D02*
X119119Y160506D01*
X121265Y162625D02*
X121267Y162738D01*
X121272Y162851D01*
X121281Y162964D01*
X121294Y163076D01*
X121311Y163188D01*
X121331Y163300D01*
X121354Y163410D01*
X121382Y163520D01*
X121412Y163629D01*
X121447Y163737D01*
X121484Y163843D01*
X121526Y163949D01*
X121570Y164053D01*
X121618Y164155D01*
X121638Y164209D01*
X121662Y164260D01*
X121689Y164310D01*
X121719Y164359D01*
X121752Y164405D01*
X121788Y164449D01*
X121827Y164490D01*
X121869Y164529D01*
X121913Y164565D01*
X121959Y164598D01*
X122007Y164628D01*
X122058Y164655D01*
X122109Y164678D01*
X122163Y164698D01*
X122217Y164714D01*
X122272Y164727D01*
X122329Y164737D01*
X122385Y164742D01*
X122442Y164744D01*
X122499Y164742D01*
X122555Y164737D01*
X122612Y164727D01*
X122667Y164714D01*
X122721Y164698D01*
X122775Y164678D01*
X122826Y164655D01*
X122877Y164628D01*
X122925Y164598D01*
X122971Y164565D01*
X123015Y164529D01*
X123057Y164490D01*
X123096Y164449D01*
X123132Y164405D01*
X123165Y164359D01*
X123195Y164310D01*
X123222Y164260D01*
X123246Y164209D01*
X123266Y164155D01*
X123314Y164053D01*
X123358Y163949D01*
X123400Y163843D01*
X123437Y163737D01*
X123472Y163629D01*
X123502Y163520D01*
X123530Y163410D01*
X123553Y163300D01*
X123573Y163188D01*
X123590Y163076D01*
X123603Y162964D01*
X123612Y162851D01*
X123617Y162738D01*
X123619Y162625D01*
X121264Y162625D02*
X121266Y162512D01*
X121271Y162399D01*
X121280Y162286D01*
X121293Y162174D01*
X121310Y162062D01*
X121330Y161950D01*
X121353Y161840D01*
X121381Y161730D01*
X121411Y161621D01*
X121446Y161513D01*
X121483Y161406D01*
X121525Y161301D01*
X121569Y161197D01*
X121617Y161094D01*
X121618Y161094D02*
X121638Y161041D01*
X121662Y160990D01*
X121689Y160940D01*
X121719Y160891D01*
X121752Y160845D01*
X121788Y160801D01*
X121827Y160760D01*
X121869Y160721D01*
X121913Y160685D01*
X121959Y160652D01*
X122007Y160622D01*
X122058Y160595D01*
X122109Y160572D01*
X122163Y160552D01*
X122217Y160536D01*
X122272Y160523D01*
X122329Y160513D01*
X122385Y160508D01*
X122442Y160506D01*
X123266Y161095D02*
X123314Y161197D01*
X123358Y161301D01*
X123400Y161407D01*
X123437Y161513D01*
X123472Y161621D01*
X123502Y161730D01*
X123530Y161840D01*
X123553Y161950D01*
X123573Y162062D01*
X123590Y162174D01*
X123603Y162286D01*
X123612Y162399D01*
X123617Y162512D01*
X123619Y162625D01*
X123266Y161095D02*
X123246Y161041D01*
X123222Y160990D01*
X123195Y160940D01*
X123165Y160891D01*
X123132Y160845D01*
X123096Y160801D01*
X123057Y160760D01*
X123015Y160721D01*
X122971Y160685D01*
X122925Y160652D01*
X122877Y160622D01*
X122826Y160595D01*
X122775Y160572D01*
X122721Y160552D01*
X122667Y160536D01*
X122612Y160523D01*
X122555Y160513D01*
X122499Y160508D01*
X122442Y160506D01*
X121500Y161448D02*
X123384Y163802D01*
X114879Y168506D02*
X113937Y168506D01*
X113878Y168508D01*
X113819Y168513D01*
X113760Y168523D01*
X113703Y168536D01*
X113646Y168552D01*
X113590Y168572D01*
X113536Y168596D01*
X113483Y168623D01*
X113432Y168653D01*
X113383Y168686D01*
X113337Y168722D01*
X113292Y168761D01*
X113250Y168803D01*
X113211Y168848D01*
X113175Y168894D01*
X113142Y168943D01*
X113112Y168994D01*
X113085Y169047D01*
X113061Y169101D01*
X113041Y169157D01*
X113025Y169214D01*
X113012Y169271D01*
X113002Y169330D01*
X112997Y169389D01*
X112995Y169448D01*
X112996Y169448D02*
X112996Y171802D01*
X112995Y171802D02*
X112997Y171861D01*
X113002Y171920D01*
X113012Y171979D01*
X113025Y172036D01*
X113041Y172093D01*
X113061Y172149D01*
X113085Y172203D01*
X113112Y172256D01*
X113142Y172307D01*
X113175Y172356D01*
X113211Y172402D01*
X113250Y172447D01*
X113292Y172489D01*
X113337Y172528D01*
X113383Y172564D01*
X113432Y172597D01*
X113483Y172627D01*
X113536Y172654D01*
X113590Y172678D01*
X113646Y172698D01*
X113703Y172714D01*
X113760Y172727D01*
X113819Y172737D01*
X113878Y172742D01*
X113937Y172744D01*
X114879Y172744D01*
X116765Y171802D02*
X117942Y172744D01*
X117942Y168506D01*
X116765Y168506D02*
X119119Y168506D01*
X121265Y171802D02*
X122442Y172744D01*
X122442Y168506D01*
X121265Y168506D02*
X123619Y168506D01*
X114879Y176506D02*
X113937Y176506D01*
X113878Y176508D01*
X113819Y176513D01*
X113760Y176523D01*
X113703Y176536D01*
X113646Y176552D01*
X113590Y176572D01*
X113536Y176596D01*
X113483Y176623D01*
X113432Y176653D01*
X113383Y176686D01*
X113337Y176722D01*
X113292Y176761D01*
X113250Y176803D01*
X113211Y176848D01*
X113175Y176894D01*
X113142Y176943D01*
X113112Y176994D01*
X113085Y177047D01*
X113061Y177101D01*
X113041Y177157D01*
X113025Y177214D01*
X113012Y177271D01*
X113002Y177330D01*
X112997Y177389D01*
X112995Y177448D01*
X112996Y177448D02*
X112996Y179802D01*
X112995Y179802D02*
X112997Y179861D01*
X113002Y179920D01*
X113012Y179979D01*
X113025Y180036D01*
X113041Y180093D01*
X113061Y180149D01*
X113085Y180203D01*
X113112Y180256D01*
X113142Y180307D01*
X113175Y180356D01*
X113211Y180402D01*
X113250Y180447D01*
X113292Y180489D01*
X113337Y180528D01*
X113383Y180564D01*
X113432Y180597D01*
X113483Y180627D01*
X113536Y180654D01*
X113590Y180678D01*
X113646Y180698D01*
X113703Y180714D01*
X113760Y180727D01*
X113819Y180737D01*
X113878Y180742D01*
X113937Y180744D01*
X114879Y180744D01*
X116765Y179802D02*
X117942Y180744D01*
X117942Y176506D01*
X116765Y176506D02*
X119119Y176506D01*
X122560Y180745D02*
X122624Y180743D01*
X122688Y180737D01*
X122751Y180728D01*
X122814Y180714D01*
X122875Y180697D01*
X122936Y180676D01*
X122995Y180652D01*
X123053Y180624D01*
X123108Y180592D01*
X123162Y180557D01*
X123214Y180519D01*
X123263Y180478D01*
X123310Y180435D01*
X123353Y180388D01*
X123394Y180339D01*
X123432Y180287D01*
X123467Y180233D01*
X123499Y180178D01*
X123527Y180120D01*
X123551Y180061D01*
X123572Y180000D01*
X123589Y179939D01*
X123603Y179876D01*
X123612Y179813D01*
X123618Y179749D01*
X123620Y179685D01*
X122560Y180744D02*
X122489Y180742D01*
X122418Y180737D01*
X122347Y180727D01*
X122277Y180714D01*
X122207Y180698D01*
X122139Y180677D01*
X122072Y180653D01*
X122006Y180626D01*
X121942Y180595D01*
X121879Y180561D01*
X121818Y180524D01*
X121759Y180484D01*
X121703Y180440D01*
X121649Y180394D01*
X121597Y180345D01*
X121548Y180293D01*
X121502Y180239D01*
X121458Y180182D01*
X121418Y180123D01*
X121381Y180063D01*
X121347Y180000D01*
X121316Y179935D01*
X121289Y179870D01*
X121265Y179802D01*
X123266Y178861D02*
X123312Y178908D01*
X123356Y178957D01*
X123396Y179009D01*
X123434Y179063D01*
X123468Y179119D01*
X123499Y179177D01*
X123527Y179237D01*
X123551Y179298D01*
X123572Y179360D01*
X123589Y179424D01*
X123602Y179489D01*
X123611Y179554D01*
X123617Y179619D01*
X123619Y179685D01*
X123266Y178860D02*
X121265Y176506D01*
X123619Y176506D01*
X114015Y96006D02*
X113073Y96006D01*
X113014Y96008D01*
X112955Y96013D01*
X112896Y96023D01*
X112839Y96036D01*
X112782Y96052D01*
X112726Y96072D01*
X112672Y96096D01*
X112619Y96123D01*
X112568Y96153D01*
X112519Y96186D01*
X112473Y96222D01*
X112428Y96261D01*
X112386Y96303D01*
X112347Y96348D01*
X112311Y96394D01*
X112278Y96443D01*
X112248Y96494D01*
X112221Y96547D01*
X112197Y96601D01*
X112177Y96657D01*
X112161Y96714D01*
X112148Y96771D01*
X112138Y96830D01*
X112133Y96889D01*
X112131Y96948D01*
X112131Y99302D01*
X112133Y99361D01*
X112138Y99420D01*
X112148Y99479D01*
X112161Y99536D01*
X112177Y99593D01*
X112197Y99649D01*
X112221Y99703D01*
X112248Y99756D01*
X112278Y99807D01*
X112311Y99856D01*
X112347Y99902D01*
X112386Y99947D01*
X112428Y99989D01*
X112473Y100028D01*
X112519Y100064D01*
X112568Y100097D01*
X112619Y100127D01*
X112672Y100154D01*
X112726Y100178D01*
X112782Y100198D01*
X112839Y100214D01*
X112896Y100227D01*
X112955Y100237D01*
X113014Y100242D01*
X113073Y100244D01*
X114015Y100244D01*
X117195Y100245D02*
X117259Y100243D01*
X117323Y100237D01*
X117386Y100228D01*
X117449Y100214D01*
X117510Y100197D01*
X117571Y100176D01*
X117630Y100152D01*
X117688Y100124D01*
X117743Y100092D01*
X117797Y100057D01*
X117849Y100019D01*
X117898Y99978D01*
X117945Y99935D01*
X117988Y99888D01*
X118029Y99839D01*
X118067Y99787D01*
X118102Y99733D01*
X118134Y99678D01*
X118162Y99620D01*
X118186Y99561D01*
X118207Y99500D01*
X118224Y99439D01*
X118238Y99376D01*
X118247Y99313D01*
X118253Y99249D01*
X118255Y99185D01*
X117195Y100244D02*
X117124Y100242D01*
X117053Y100237D01*
X116982Y100227D01*
X116912Y100214D01*
X116842Y100198D01*
X116774Y100177D01*
X116707Y100153D01*
X116641Y100126D01*
X116577Y100095D01*
X116514Y100061D01*
X116453Y100024D01*
X116394Y99984D01*
X116338Y99940D01*
X116284Y99894D01*
X116232Y99845D01*
X116183Y99793D01*
X116137Y99739D01*
X116093Y99682D01*
X116053Y99623D01*
X116016Y99563D01*
X115982Y99500D01*
X115951Y99435D01*
X115924Y99370D01*
X115900Y99302D01*
X117901Y98361D02*
X117947Y98408D01*
X117991Y98457D01*
X118031Y98509D01*
X118069Y98563D01*
X118103Y98619D01*
X118134Y98677D01*
X118162Y98737D01*
X118186Y98798D01*
X118207Y98860D01*
X118224Y98924D01*
X118237Y98989D01*
X118246Y99054D01*
X118252Y99119D01*
X118254Y99185D01*
X117901Y98360D02*
X115900Y96006D01*
X118254Y96006D01*
X171323Y107006D02*
X172265Y107006D01*
X171323Y107006D02*
X171264Y107008D01*
X171205Y107013D01*
X171146Y107023D01*
X171089Y107036D01*
X171032Y107052D01*
X170976Y107072D01*
X170922Y107096D01*
X170869Y107123D01*
X170818Y107153D01*
X170769Y107186D01*
X170723Y107222D01*
X170678Y107261D01*
X170636Y107303D01*
X170597Y107348D01*
X170561Y107394D01*
X170528Y107443D01*
X170498Y107494D01*
X170471Y107547D01*
X170447Y107601D01*
X170427Y107657D01*
X170411Y107714D01*
X170398Y107771D01*
X170388Y107830D01*
X170383Y107889D01*
X170381Y107948D01*
X170381Y110302D01*
X170383Y110361D01*
X170388Y110420D01*
X170398Y110479D01*
X170411Y110536D01*
X170427Y110593D01*
X170447Y110649D01*
X170471Y110703D01*
X170498Y110756D01*
X170528Y110807D01*
X170561Y110856D01*
X170597Y110902D01*
X170636Y110947D01*
X170678Y110989D01*
X170723Y111028D01*
X170769Y111064D01*
X170818Y111097D01*
X170869Y111127D01*
X170922Y111154D01*
X170976Y111178D01*
X171032Y111198D01*
X171089Y111214D01*
X171146Y111227D01*
X171205Y111237D01*
X171264Y111242D01*
X171323Y111244D01*
X172265Y111244D01*
X174150Y107006D02*
X175327Y107006D01*
X175394Y107008D01*
X175461Y107014D01*
X175528Y107023D01*
X175594Y107037D01*
X175659Y107054D01*
X175723Y107074D01*
X175785Y107099D01*
X175846Y107127D01*
X175906Y107158D01*
X175963Y107193D01*
X176019Y107231D01*
X176072Y107272D01*
X176123Y107316D01*
X176171Y107363D01*
X176217Y107412D01*
X176259Y107464D01*
X176299Y107519D01*
X176335Y107575D01*
X176368Y107634D01*
X176398Y107694D01*
X176424Y107756D01*
X176446Y107819D01*
X176465Y107884D01*
X176481Y107949D01*
X176492Y108015D01*
X176500Y108082D01*
X176504Y108149D01*
X176504Y108217D01*
X176500Y108284D01*
X176492Y108351D01*
X176481Y108417D01*
X176465Y108482D01*
X176446Y108547D01*
X176424Y108610D01*
X176398Y108672D01*
X176368Y108732D01*
X176335Y108791D01*
X176299Y108847D01*
X176259Y108902D01*
X176217Y108954D01*
X176171Y109003D01*
X176123Y109050D01*
X176072Y109094D01*
X176019Y109135D01*
X175963Y109173D01*
X175906Y109208D01*
X175846Y109239D01*
X175785Y109267D01*
X175723Y109292D01*
X175659Y109312D01*
X175594Y109329D01*
X175528Y109343D01*
X175461Y109352D01*
X175394Y109358D01*
X175327Y109360D01*
X175563Y111244D02*
X174150Y111244D01*
X175563Y111244D02*
X175623Y111242D01*
X175683Y111236D01*
X175743Y111227D01*
X175802Y111213D01*
X175860Y111196D01*
X175917Y111175D01*
X175972Y111151D01*
X176025Y111123D01*
X176077Y111091D01*
X176126Y111057D01*
X176174Y111019D01*
X176218Y110979D01*
X176260Y110935D01*
X176299Y110889D01*
X176336Y110841D01*
X176369Y110790D01*
X176398Y110738D01*
X176424Y110683D01*
X176447Y110627D01*
X176466Y110570D01*
X176481Y110512D01*
X176493Y110452D01*
X176501Y110392D01*
X176505Y110332D01*
X176505Y110272D01*
X176501Y110212D01*
X176493Y110152D01*
X176481Y110092D01*
X176466Y110034D01*
X176447Y109977D01*
X176424Y109921D01*
X176398Y109866D01*
X176369Y109814D01*
X176336Y109763D01*
X176299Y109715D01*
X176260Y109669D01*
X176218Y109625D01*
X176174Y109585D01*
X176126Y109547D01*
X176077Y109513D01*
X176025Y109481D01*
X175972Y109453D01*
X175917Y109429D01*
X175860Y109408D01*
X175802Y109391D01*
X175743Y109377D01*
X175683Y109368D01*
X175623Y109362D01*
X175563Y109360D01*
X174621Y109360D01*
X171765Y124506D02*
X170823Y124506D01*
X170764Y124508D01*
X170705Y124513D01*
X170646Y124523D01*
X170589Y124536D01*
X170532Y124552D01*
X170476Y124572D01*
X170422Y124596D01*
X170369Y124623D01*
X170318Y124653D01*
X170269Y124686D01*
X170223Y124722D01*
X170178Y124761D01*
X170136Y124803D01*
X170097Y124848D01*
X170061Y124894D01*
X170028Y124943D01*
X169998Y124994D01*
X169971Y125047D01*
X169947Y125101D01*
X169927Y125157D01*
X169911Y125214D01*
X169898Y125271D01*
X169888Y125330D01*
X169883Y125389D01*
X169881Y125448D01*
X169881Y127802D01*
X169883Y127861D01*
X169888Y127920D01*
X169898Y127979D01*
X169911Y128036D01*
X169927Y128093D01*
X169947Y128149D01*
X169971Y128203D01*
X169998Y128256D01*
X170028Y128307D01*
X170061Y128356D01*
X170097Y128402D01*
X170136Y128447D01*
X170178Y128489D01*
X170223Y128528D01*
X170269Y128564D01*
X170318Y128597D01*
X170369Y128627D01*
X170422Y128654D01*
X170476Y128678D01*
X170532Y128698D01*
X170589Y128714D01*
X170646Y128727D01*
X170705Y128737D01*
X170764Y128742D01*
X170823Y128744D01*
X171765Y128744D01*
X174592Y128744D02*
X173650Y125448D01*
X176004Y125448D01*
X175298Y126390D02*
X175298Y124506D01*
X171765Y131756D02*
X170823Y131756D01*
X170764Y131758D01*
X170705Y131763D01*
X170646Y131773D01*
X170589Y131786D01*
X170532Y131802D01*
X170476Y131822D01*
X170422Y131846D01*
X170369Y131873D01*
X170318Y131903D01*
X170269Y131936D01*
X170223Y131972D01*
X170178Y132011D01*
X170136Y132053D01*
X170097Y132098D01*
X170061Y132144D01*
X170028Y132193D01*
X169998Y132244D01*
X169971Y132297D01*
X169947Y132351D01*
X169927Y132407D01*
X169911Y132464D01*
X169898Y132521D01*
X169888Y132580D01*
X169883Y132639D01*
X169881Y132698D01*
X169881Y135052D01*
X169883Y135111D01*
X169888Y135170D01*
X169898Y135229D01*
X169911Y135286D01*
X169927Y135343D01*
X169947Y135399D01*
X169971Y135453D01*
X169998Y135506D01*
X170028Y135557D01*
X170061Y135606D01*
X170097Y135652D01*
X170136Y135697D01*
X170178Y135739D01*
X170223Y135778D01*
X170269Y135814D01*
X170318Y135847D01*
X170369Y135877D01*
X170422Y135904D01*
X170476Y135928D01*
X170532Y135948D01*
X170589Y135964D01*
X170646Y135977D01*
X170705Y135987D01*
X170764Y135992D01*
X170823Y135994D01*
X171765Y135994D01*
X173650Y131756D02*
X175063Y131756D01*
X175122Y131758D01*
X175181Y131763D01*
X175240Y131773D01*
X175297Y131786D01*
X175354Y131802D01*
X175410Y131822D01*
X175464Y131846D01*
X175517Y131873D01*
X175568Y131903D01*
X175617Y131936D01*
X175663Y131972D01*
X175708Y132011D01*
X175750Y132053D01*
X175789Y132098D01*
X175825Y132144D01*
X175858Y132193D01*
X175888Y132244D01*
X175915Y132297D01*
X175939Y132351D01*
X175959Y132407D01*
X175975Y132464D01*
X175988Y132521D01*
X175998Y132580D01*
X176003Y132639D01*
X176005Y132698D01*
X176004Y132698D02*
X176004Y133169D01*
X176005Y133169D02*
X176003Y133228D01*
X175998Y133287D01*
X175988Y133346D01*
X175975Y133403D01*
X175959Y133460D01*
X175939Y133516D01*
X175915Y133570D01*
X175888Y133623D01*
X175858Y133674D01*
X175825Y133723D01*
X175789Y133769D01*
X175750Y133814D01*
X175708Y133856D01*
X175663Y133895D01*
X175617Y133931D01*
X175568Y133964D01*
X175517Y133994D01*
X175464Y134021D01*
X175410Y134045D01*
X175354Y134065D01*
X175297Y134081D01*
X175240Y134094D01*
X175181Y134104D01*
X175122Y134109D01*
X175063Y134111D01*
X175063Y134110D02*
X173650Y134110D01*
X173650Y135994D01*
X176004Y135994D01*
X82379Y87506D02*
X81437Y87506D01*
X81378Y87508D01*
X81319Y87513D01*
X81260Y87523D01*
X81203Y87536D01*
X81146Y87552D01*
X81090Y87572D01*
X81036Y87596D01*
X80983Y87623D01*
X80932Y87653D01*
X80883Y87686D01*
X80837Y87722D01*
X80792Y87761D01*
X80750Y87803D01*
X80711Y87848D01*
X80675Y87894D01*
X80642Y87943D01*
X80612Y87994D01*
X80585Y88047D01*
X80561Y88101D01*
X80541Y88157D01*
X80525Y88214D01*
X80512Y88271D01*
X80502Y88330D01*
X80497Y88389D01*
X80495Y88448D01*
X80496Y88448D02*
X80496Y90802D01*
X80495Y90802D02*
X80497Y90861D01*
X80502Y90920D01*
X80512Y90979D01*
X80525Y91036D01*
X80541Y91093D01*
X80561Y91149D01*
X80585Y91203D01*
X80612Y91256D01*
X80642Y91307D01*
X80675Y91356D01*
X80711Y91402D01*
X80750Y91447D01*
X80792Y91489D01*
X80837Y91528D01*
X80883Y91564D01*
X80932Y91597D01*
X80983Y91627D01*
X81036Y91654D01*
X81090Y91678D01*
X81146Y91698D01*
X81203Y91714D01*
X81260Y91727D01*
X81319Y91737D01*
X81378Y91742D01*
X81437Y91744D01*
X82379Y91744D01*
X84265Y89860D02*
X85677Y89860D01*
X85677Y89861D02*
X85736Y89859D01*
X85795Y89854D01*
X85854Y89844D01*
X85911Y89831D01*
X85968Y89815D01*
X86024Y89795D01*
X86078Y89771D01*
X86131Y89744D01*
X86182Y89714D01*
X86231Y89681D01*
X86277Y89645D01*
X86322Y89606D01*
X86364Y89564D01*
X86403Y89519D01*
X86439Y89473D01*
X86472Y89424D01*
X86502Y89373D01*
X86529Y89320D01*
X86553Y89266D01*
X86573Y89210D01*
X86589Y89153D01*
X86602Y89096D01*
X86612Y89037D01*
X86617Y88978D01*
X86619Y88919D01*
X86619Y88683D01*
X86617Y88616D01*
X86611Y88549D01*
X86602Y88482D01*
X86588Y88416D01*
X86571Y88351D01*
X86551Y88287D01*
X86526Y88225D01*
X86498Y88164D01*
X86467Y88104D01*
X86432Y88047D01*
X86394Y87991D01*
X86353Y87938D01*
X86309Y87887D01*
X86262Y87839D01*
X86213Y87793D01*
X86161Y87751D01*
X86106Y87711D01*
X86050Y87675D01*
X85991Y87642D01*
X85931Y87612D01*
X85869Y87586D01*
X85806Y87564D01*
X85741Y87545D01*
X85676Y87529D01*
X85610Y87518D01*
X85543Y87510D01*
X85476Y87506D01*
X85408Y87506D01*
X85341Y87510D01*
X85274Y87518D01*
X85208Y87529D01*
X85143Y87545D01*
X85078Y87564D01*
X85015Y87586D01*
X84953Y87612D01*
X84893Y87642D01*
X84834Y87675D01*
X84778Y87711D01*
X84723Y87751D01*
X84671Y87793D01*
X84622Y87839D01*
X84575Y87887D01*
X84531Y87938D01*
X84490Y87991D01*
X84452Y88047D01*
X84417Y88104D01*
X84386Y88164D01*
X84358Y88225D01*
X84333Y88287D01*
X84313Y88351D01*
X84296Y88416D01*
X84282Y88482D01*
X84273Y88549D01*
X84267Y88616D01*
X84265Y88683D01*
X84265Y89860D01*
X84264Y89860D02*
X84266Y89945D01*
X84272Y90029D01*
X84281Y90113D01*
X84294Y90196D01*
X84311Y90279D01*
X84332Y90361D01*
X84356Y90442D01*
X84384Y90522D01*
X84416Y90600D01*
X84451Y90677D01*
X84489Y90753D01*
X84531Y90826D01*
X84576Y90898D01*
X84624Y90967D01*
X84675Y91035D01*
X84729Y91100D01*
X84786Y91162D01*
X84846Y91222D01*
X84908Y91279D01*
X84973Y91333D01*
X85041Y91384D01*
X85110Y91432D01*
X85182Y91477D01*
X85255Y91519D01*
X85331Y91557D01*
X85408Y91592D01*
X85486Y91624D01*
X85566Y91652D01*
X85647Y91676D01*
X85729Y91697D01*
X85812Y91714D01*
X85895Y91727D01*
X85979Y91736D01*
X86063Y91742D01*
X86148Y91744D01*
X82379Y95506D02*
X81437Y95506D01*
X81378Y95508D01*
X81319Y95513D01*
X81260Y95523D01*
X81203Y95536D01*
X81146Y95552D01*
X81090Y95572D01*
X81036Y95596D01*
X80983Y95623D01*
X80932Y95653D01*
X80883Y95686D01*
X80837Y95722D01*
X80792Y95761D01*
X80750Y95803D01*
X80711Y95848D01*
X80675Y95894D01*
X80642Y95943D01*
X80612Y95994D01*
X80585Y96047D01*
X80561Y96101D01*
X80541Y96157D01*
X80525Y96214D01*
X80512Y96271D01*
X80502Y96330D01*
X80497Y96389D01*
X80495Y96448D01*
X80496Y96448D02*
X80496Y98802D01*
X80495Y98802D02*
X80497Y98861D01*
X80502Y98920D01*
X80512Y98979D01*
X80525Y99036D01*
X80541Y99093D01*
X80561Y99149D01*
X80585Y99203D01*
X80612Y99256D01*
X80642Y99307D01*
X80675Y99356D01*
X80711Y99402D01*
X80750Y99447D01*
X80792Y99489D01*
X80837Y99528D01*
X80883Y99564D01*
X80932Y99597D01*
X80983Y99627D01*
X81036Y99654D01*
X81090Y99678D01*
X81146Y99698D01*
X81203Y99714D01*
X81260Y99727D01*
X81319Y99737D01*
X81378Y99742D01*
X81437Y99744D01*
X82379Y99744D01*
X84265Y99744D02*
X84265Y99273D01*
X84265Y99744D02*
X86619Y99744D01*
X85442Y95506D01*
X82379Y103506D02*
X81437Y103506D01*
X81378Y103508D01*
X81319Y103513D01*
X81260Y103523D01*
X81203Y103536D01*
X81146Y103552D01*
X81090Y103572D01*
X81036Y103596D01*
X80983Y103623D01*
X80932Y103653D01*
X80883Y103686D01*
X80837Y103722D01*
X80792Y103761D01*
X80750Y103803D01*
X80711Y103848D01*
X80675Y103894D01*
X80642Y103943D01*
X80612Y103994D01*
X80585Y104047D01*
X80561Y104101D01*
X80541Y104157D01*
X80525Y104214D01*
X80512Y104271D01*
X80502Y104330D01*
X80497Y104389D01*
X80495Y104448D01*
X80496Y104448D02*
X80496Y106802D01*
X80495Y106802D02*
X80497Y106861D01*
X80502Y106920D01*
X80512Y106979D01*
X80525Y107036D01*
X80541Y107093D01*
X80561Y107149D01*
X80585Y107203D01*
X80612Y107256D01*
X80642Y107307D01*
X80675Y107356D01*
X80711Y107402D01*
X80750Y107447D01*
X80792Y107489D01*
X80837Y107528D01*
X80883Y107564D01*
X80932Y107597D01*
X80983Y107627D01*
X81036Y107654D01*
X81090Y107678D01*
X81146Y107698D01*
X81203Y107714D01*
X81260Y107727D01*
X81319Y107737D01*
X81378Y107742D01*
X81437Y107744D01*
X82379Y107744D01*
X84265Y104683D02*
X84267Y104750D01*
X84273Y104817D01*
X84282Y104884D01*
X84296Y104950D01*
X84313Y105015D01*
X84333Y105079D01*
X84358Y105141D01*
X84386Y105202D01*
X84417Y105262D01*
X84452Y105319D01*
X84490Y105375D01*
X84531Y105428D01*
X84575Y105479D01*
X84622Y105527D01*
X84671Y105573D01*
X84723Y105615D01*
X84778Y105655D01*
X84834Y105691D01*
X84893Y105724D01*
X84953Y105754D01*
X85015Y105780D01*
X85078Y105802D01*
X85143Y105821D01*
X85208Y105837D01*
X85274Y105848D01*
X85341Y105856D01*
X85408Y105860D01*
X85476Y105860D01*
X85543Y105856D01*
X85610Y105848D01*
X85676Y105837D01*
X85741Y105821D01*
X85806Y105802D01*
X85869Y105780D01*
X85931Y105754D01*
X85991Y105724D01*
X86050Y105691D01*
X86106Y105655D01*
X86161Y105615D01*
X86213Y105573D01*
X86262Y105527D01*
X86309Y105479D01*
X86353Y105428D01*
X86394Y105375D01*
X86432Y105319D01*
X86467Y105262D01*
X86498Y105202D01*
X86526Y105141D01*
X86551Y105079D01*
X86571Y105015D01*
X86588Y104950D01*
X86602Y104884D01*
X86611Y104817D01*
X86617Y104750D01*
X86619Y104683D01*
X86617Y104616D01*
X86611Y104549D01*
X86602Y104482D01*
X86588Y104416D01*
X86571Y104351D01*
X86551Y104287D01*
X86526Y104225D01*
X86498Y104164D01*
X86467Y104104D01*
X86432Y104047D01*
X86394Y103991D01*
X86353Y103938D01*
X86309Y103887D01*
X86262Y103839D01*
X86213Y103793D01*
X86161Y103751D01*
X86106Y103711D01*
X86050Y103675D01*
X85991Y103642D01*
X85931Y103612D01*
X85869Y103586D01*
X85806Y103564D01*
X85741Y103545D01*
X85676Y103529D01*
X85610Y103518D01*
X85543Y103510D01*
X85476Y103506D01*
X85408Y103506D01*
X85341Y103510D01*
X85274Y103518D01*
X85208Y103529D01*
X85143Y103545D01*
X85078Y103564D01*
X85015Y103586D01*
X84953Y103612D01*
X84893Y103642D01*
X84834Y103675D01*
X84778Y103711D01*
X84723Y103751D01*
X84671Y103793D01*
X84622Y103839D01*
X84575Y103887D01*
X84531Y103938D01*
X84490Y103991D01*
X84452Y104047D01*
X84417Y104104D01*
X84386Y104164D01*
X84358Y104225D01*
X84333Y104287D01*
X84313Y104351D01*
X84296Y104416D01*
X84282Y104482D01*
X84273Y104549D01*
X84267Y104616D01*
X84265Y104683D01*
X84500Y106802D02*
X84502Y106862D01*
X84508Y106922D01*
X84517Y106982D01*
X84531Y107041D01*
X84548Y107099D01*
X84569Y107156D01*
X84593Y107211D01*
X84621Y107264D01*
X84653Y107316D01*
X84687Y107365D01*
X84725Y107413D01*
X84765Y107457D01*
X84809Y107499D01*
X84855Y107538D01*
X84903Y107575D01*
X84954Y107608D01*
X85006Y107637D01*
X85061Y107663D01*
X85117Y107686D01*
X85174Y107705D01*
X85232Y107720D01*
X85292Y107732D01*
X85352Y107740D01*
X85412Y107744D01*
X85472Y107744D01*
X85532Y107740D01*
X85592Y107732D01*
X85652Y107720D01*
X85710Y107705D01*
X85767Y107686D01*
X85823Y107663D01*
X85878Y107637D01*
X85930Y107608D01*
X85981Y107575D01*
X86029Y107538D01*
X86075Y107499D01*
X86119Y107457D01*
X86159Y107413D01*
X86197Y107365D01*
X86231Y107316D01*
X86263Y107264D01*
X86291Y107211D01*
X86315Y107156D01*
X86336Y107099D01*
X86353Y107041D01*
X86367Y106982D01*
X86376Y106922D01*
X86382Y106862D01*
X86384Y106802D01*
X86382Y106742D01*
X86376Y106682D01*
X86367Y106622D01*
X86353Y106563D01*
X86336Y106505D01*
X86315Y106448D01*
X86291Y106393D01*
X86263Y106340D01*
X86231Y106288D01*
X86197Y106239D01*
X86159Y106191D01*
X86119Y106147D01*
X86075Y106105D01*
X86029Y106066D01*
X85981Y106029D01*
X85930Y105996D01*
X85878Y105967D01*
X85823Y105941D01*
X85767Y105918D01*
X85710Y105899D01*
X85652Y105884D01*
X85592Y105872D01*
X85532Y105864D01*
X85472Y105860D01*
X85412Y105860D01*
X85352Y105864D01*
X85292Y105872D01*
X85232Y105884D01*
X85174Y105899D01*
X85117Y105918D01*
X85061Y105941D01*
X85006Y105967D01*
X84954Y105996D01*
X84903Y106029D01*
X84855Y106066D01*
X84809Y106105D01*
X84765Y106147D01*
X84725Y106191D01*
X84687Y106239D01*
X84653Y106288D01*
X84621Y106340D01*
X84593Y106393D01*
X84569Y106448D01*
X84548Y106505D01*
X84531Y106563D01*
X84517Y106622D01*
X84508Y106682D01*
X84502Y106742D01*
X84500Y106802D01*
X82379Y111506D02*
X81437Y111506D01*
X81378Y111508D01*
X81319Y111513D01*
X81260Y111523D01*
X81203Y111536D01*
X81146Y111552D01*
X81090Y111572D01*
X81036Y111596D01*
X80983Y111623D01*
X80932Y111653D01*
X80883Y111686D01*
X80837Y111722D01*
X80792Y111761D01*
X80750Y111803D01*
X80711Y111848D01*
X80675Y111894D01*
X80642Y111943D01*
X80612Y111994D01*
X80585Y112047D01*
X80561Y112101D01*
X80541Y112157D01*
X80525Y112214D01*
X80512Y112271D01*
X80502Y112330D01*
X80497Y112389D01*
X80495Y112448D01*
X80496Y112448D02*
X80496Y114802D01*
X80495Y114802D02*
X80497Y114861D01*
X80502Y114920D01*
X80512Y114979D01*
X80525Y115036D01*
X80541Y115093D01*
X80561Y115149D01*
X80585Y115203D01*
X80612Y115256D01*
X80642Y115307D01*
X80675Y115356D01*
X80711Y115402D01*
X80750Y115447D01*
X80792Y115489D01*
X80837Y115528D01*
X80883Y115564D01*
X80932Y115597D01*
X80983Y115627D01*
X81036Y115654D01*
X81090Y115678D01*
X81146Y115698D01*
X81203Y115714D01*
X81260Y115727D01*
X81319Y115737D01*
X81378Y115742D01*
X81437Y115744D01*
X82379Y115744D01*
X85206Y113390D02*
X86619Y113390D01*
X85206Y113389D02*
X85147Y113391D01*
X85088Y113396D01*
X85029Y113406D01*
X84972Y113419D01*
X84915Y113435D01*
X84859Y113455D01*
X84805Y113479D01*
X84752Y113506D01*
X84701Y113536D01*
X84652Y113569D01*
X84606Y113605D01*
X84561Y113644D01*
X84519Y113686D01*
X84480Y113731D01*
X84444Y113777D01*
X84411Y113826D01*
X84381Y113877D01*
X84354Y113930D01*
X84330Y113984D01*
X84310Y114040D01*
X84294Y114097D01*
X84281Y114155D01*
X84271Y114213D01*
X84266Y114272D01*
X84264Y114331D01*
X84265Y114331D02*
X84265Y114567D01*
X84267Y114634D01*
X84273Y114701D01*
X84282Y114768D01*
X84296Y114834D01*
X84313Y114899D01*
X84333Y114963D01*
X84358Y115025D01*
X84386Y115086D01*
X84417Y115146D01*
X84452Y115203D01*
X84490Y115259D01*
X84531Y115312D01*
X84575Y115363D01*
X84622Y115411D01*
X84671Y115457D01*
X84723Y115499D01*
X84778Y115539D01*
X84834Y115575D01*
X84893Y115608D01*
X84953Y115638D01*
X85015Y115664D01*
X85078Y115686D01*
X85143Y115705D01*
X85208Y115721D01*
X85274Y115732D01*
X85341Y115740D01*
X85408Y115744D01*
X85476Y115744D01*
X85543Y115740D01*
X85610Y115732D01*
X85676Y115721D01*
X85741Y115705D01*
X85806Y115686D01*
X85869Y115664D01*
X85931Y115638D01*
X85991Y115608D01*
X86050Y115575D01*
X86106Y115539D01*
X86161Y115499D01*
X86213Y115457D01*
X86262Y115411D01*
X86309Y115363D01*
X86353Y115312D01*
X86394Y115259D01*
X86432Y115203D01*
X86467Y115146D01*
X86498Y115086D01*
X86526Y115025D01*
X86551Y114963D01*
X86571Y114899D01*
X86588Y114834D01*
X86602Y114768D01*
X86611Y114701D01*
X86617Y114634D01*
X86619Y114567D01*
X86619Y113390D01*
X86617Y113305D01*
X86611Y113221D01*
X86602Y113137D01*
X86589Y113054D01*
X86572Y112971D01*
X86551Y112889D01*
X86527Y112808D01*
X86499Y112728D01*
X86467Y112650D01*
X86432Y112573D01*
X86394Y112497D01*
X86352Y112424D01*
X86307Y112352D01*
X86259Y112283D01*
X86208Y112215D01*
X86154Y112150D01*
X86097Y112088D01*
X86037Y112028D01*
X85975Y111971D01*
X85910Y111917D01*
X85842Y111866D01*
X85773Y111818D01*
X85701Y111773D01*
X85628Y111731D01*
X85552Y111693D01*
X85475Y111658D01*
X85397Y111626D01*
X85317Y111598D01*
X85236Y111574D01*
X85154Y111553D01*
X85071Y111536D01*
X84988Y111523D01*
X84904Y111514D01*
X84819Y111508D01*
X84735Y111506D01*
X69807Y138506D02*
X69807Y142744D01*
X70984Y142744D01*
X71051Y142742D01*
X71118Y142736D01*
X71185Y142727D01*
X71251Y142713D01*
X71316Y142696D01*
X71380Y142676D01*
X71442Y142651D01*
X71503Y142623D01*
X71563Y142592D01*
X71620Y142557D01*
X71676Y142519D01*
X71729Y142478D01*
X71780Y142434D01*
X71828Y142387D01*
X71874Y142338D01*
X71916Y142286D01*
X71956Y142231D01*
X71992Y142175D01*
X72025Y142116D01*
X72055Y142056D01*
X72081Y141994D01*
X72103Y141931D01*
X72122Y141866D01*
X72138Y141801D01*
X72149Y141735D01*
X72157Y141668D01*
X72161Y141601D01*
X72161Y141533D01*
X72157Y141466D01*
X72149Y141399D01*
X72138Y141333D01*
X72122Y141268D01*
X72103Y141203D01*
X72081Y141140D01*
X72055Y141078D01*
X72025Y141018D01*
X71992Y140959D01*
X71956Y140903D01*
X71916Y140848D01*
X71874Y140796D01*
X71828Y140747D01*
X71780Y140700D01*
X71729Y140656D01*
X71676Y140615D01*
X71620Y140577D01*
X71563Y140542D01*
X71503Y140511D01*
X71442Y140483D01*
X71380Y140458D01*
X71316Y140438D01*
X71251Y140421D01*
X71185Y140407D01*
X71118Y140398D01*
X71051Y140392D01*
X70984Y140390D01*
X69807Y140390D01*
X71219Y140390D02*
X72161Y138506D01*
X75560Y142745D02*
X75624Y142743D01*
X75688Y142737D01*
X75751Y142728D01*
X75814Y142714D01*
X75875Y142697D01*
X75936Y142676D01*
X75995Y142652D01*
X76053Y142624D01*
X76108Y142592D01*
X76162Y142557D01*
X76214Y142519D01*
X76263Y142478D01*
X76310Y142435D01*
X76353Y142388D01*
X76394Y142339D01*
X76432Y142287D01*
X76467Y142233D01*
X76499Y142178D01*
X76527Y142120D01*
X76551Y142061D01*
X76572Y142000D01*
X76589Y141939D01*
X76603Y141876D01*
X76612Y141813D01*
X76618Y141749D01*
X76620Y141685D01*
X75560Y142744D02*
X75489Y142742D01*
X75418Y142737D01*
X75347Y142727D01*
X75277Y142714D01*
X75207Y142698D01*
X75139Y142677D01*
X75072Y142653D01*
X75006Y142626D01*
X74942Y142595D01*
X74879Y142561D01*
X74818Y142524D01*
X74759Y142484D01*
X74703Y142440D01*
X74649Y142394D01*
X74597Y142345D01*
X74548Y142293D01*
X74502Y142239D01*
X74458Y142182D01*
X74418Y142123D01*
X74381Y142063D01*
X74347Y142000D01*
X74316Y141935D01*
X74289Y141870D01*
X74265Y141802D01*
X76266Y140861D02*
X76312Y140908D01*
X76356Y140957D01*
X76396Y141009D01*
X76434Y141063D01*
X76468Y141119D01*
X76499Y141177D01*
X76527Y141237D01*
X76551Y141298D01*
X76572Y141360D01*
X76589Y141424D01*
X76602Y141489D01*
X76611Y141554D01*
X76617Y141619D01*
X76619Y141685D01*
X76266Y140860D02*
X74265Y138506D01*
X76619Y138506D01*
X69807Y146506D02*
X69807Y150744D01*
X70984Y150744D01*
X71051Y150742D01*
X71118Y150736D01*
X71185Y150727D01*
X71251Y150713D01*
X71316Y150696D01*
X71380Y150676D01*
X71442Y150651D01*
X71503Y150623D01*
X71563Y150592D01*
X71620Y150557D01*
X71676Y150519D01*
X71729Y150478D01*
X71780Y150434D01*
X71828Y150387D01*
X71874Y150338D01*
X71916Y150286D01*
X71956Y150231D01*
X71992Y150175D01*
X72025Y150116D01*
X72055Y150056D01*
X72081Y149994D01*
X72103Y149931D01*
X72122Y149866D01*
X72138Y149801D01*
X72149Y149735D01*
X72157Y149668D01*
X72161Y149601D01*
X72161Y149533D01*
X72157Y149466D01*
X72149Y149399D01*
X72138Y149333D01*
X72122Y149268D01*
X72103Y149203D01*
X72081Y149140D01*
X72055Y149078D01*
X72025Y149018D01*
X71992Y148959D01*
X71956Y148903D01*
X71916Y148848D01*
X71874Y148796D01*
X71828Y148747D01*
X71780Y148700D01*
X71729Y148656D01*
X71676Y148615D01*
X71620Y148577D01*
X71563Y148542D01*
X71503Y148511D01*
X71442Y148483D01*
X71380Y148458D01*
X71316Y148438D01*
X71251Y148421D01*
X71185Y148407D01*
X71118Y148398D01*
X71051Y148392D01*
X70984Y148390D01*
X69807Y148390D01*
X71219Y148390D02*
X72161Y146506D01*
X74265Y146506D02*
X75442Y146506D01*
X75509Y146508D01*
X75576Y146514D01*
X75643Y146523D01*
X75709Y146537D01*
X75774Y146554D01*
X75838Y146574D01*
X75900Y146599D01*
X75961Y146627D01*
X76021Y146658D01*
X76078Y146693D01*
X76134Y146731D01*
X76187Y146772D01*
X76238Y146816D01*
X76286Y146863D01*
X76332Y146912D01*
X76374Y146964D01*
X76414Y147019D01*
X76450Y147075D01*
X76483Y147134D01*
X76513Y147194D01*
X76539Y147256D01*
X76561Y147319D01*
X76580Y147384D01*
X76596Y147449D01*
X76607Y147515D01*
X76615Y147582D01*
X76619Y147649D01*
X76619Y147717D01*
X76615Y147784D01*
X76607Y147851D01*
X76596Y147917D01*
X76580Y147982D01*
X76561Y148047D01*
X76539Y148110D01*
X76513Y148172D01*
X76483Y148232D01*
X76450Y148291D01*
X76414Y148347D01*
X76374Y148402D01*
X76332Y148454D01*
X76286Y148503D01*
X76238Y148550D01*
X76187Y148594D01*
X76134Y148635D01*
X76078Y148673D01*
X76021Y148708D01*
X75961Y148739D01*
X75900Y148767D01*
X75838Y148792D01*
X75774Y148812D01*
X75709Y148829D01*
X75643Y148843D01*
X75576Y148852D01*
X75509Y148858D01*
X75442Y148860D01*
X75677Y150744D02*
X74265Y150744D01*
X75677Y150744D02*
X75737Y150742D01*
X75797Y150736D01*
X75857Y150727D01*
X75916Y150713D01*
X75974Y150696D01*
X76031Y150675D01*
X76086Y150651D01*
X76139Y150623D01*
X76191Y150591D01*
X76240Y150557D01*
X76288Y150519D01*
X76332Y150479D01*
X76374Y150435D01*
X76413Y150389D01*
X76450Y150341D01*
X76483Y150290D01*
X76512Y150238D01*
X76538Y150183D01*
X76561Y150127D01*
X76580Y150070D01*
X76595Y150012D01*
X76607Y149952D01*
X76615Y149892D01*
X76619Y149832D01*
X76619Y149772D01*
X76615Y149712D01*
X76607Y149652D01*
X76595Y149592D01*
X76580Y149534D01*
X76561Y149477D01*
X76538Y149421D01*
X76512Y149366D01*
X76483Y149314D01*
X76450Y149263D01*
X76413Y149215D01*
X76374Y149169D01*
X76332Y149125D01*
X76288Y149085D01*
X76240Y149047D01*
X76191Y149013D01*
X76139Y148981D01*
X76086Y148953D01*
X76031Y148929D01*
X75974Y148908D01*
X75916Y148891D01*
X75857Y148877D01*
X75797Y148868D01*
X75737Y148862D01*
X75677Y148860D01*
X74735Y148860D01*
X143881Y102244D02*
X143881Y99183D01*
X143883Y99116D01*
X143889Y99049D01*
X143898Y98982D01*
X143912Y98916D01*
X143929Y98851D01*
X143949Y98787D01*
X143974Y98725D01*
X144002Y98664D01*
X144033Y98604D01*
X144068Y98547D01*
X144106Y98491D01*
X144147Y98438D01*
X144191Y98387D01*
X144238Y98339D01*
X144287Y98293D01*
X144339Y98251D01*
X144394Y98211D01*
X144450Y98175D01*
X144509Y98142D01*
X144569Y98112D01*
X144631Y98086D01*
X144694Y98064D01*
X144759Y98045D01*
X144824Y98029D01*
X144890Y98018D01*
X144957Y98010D01*
X145024Y98006D01*
X145092Y98006D01*
X145159Y98010D01*
X145226Y98018D01*
X145292Y98029D01*
X145357Y98045D01*
X145422Y98064D01*
X145485Y98086D01*
X145547Y98112D01*
X145607Y98142D01*
X145666Y98175D01*
X145722Y98211D01*
X145777Y98251D01*
X145829Y98293D01*
X145878Y98339D01*
X145925Y98387D01*
X145969Y98438D01*
X146010Y98491D01*
X146048Y98547D01*
X146083Y98604D01*
X146114Y98664D01*
X146142Y98725D01*
X146167Y98787D01*
X146187Y98851D01*
X146204Y98916D01*
X146218Y98982D01*
X146227Y99049D01*
X146233Y99116D01*
X146235Y99183D01*
X146235Y102244D01*
X148531Y101302D02*
X149708Y102244D01*
X149708Y98006D01*
X148531Y98006D02*
X150885Y98006D01*
X103669Y129307D02*
X99431Y129307D01*
X99431Y130484D01*
X99433Y130551D01*
X99439Y130618D01*
X99448Y130685D01*
X99462Y130751D01*
X99479Y130816D01*
X99499Y130880D01*
X99524Y130942D01*
X99552Y131003D01*
X99583Y131063D01*
X99618Y131120D01*
X99656Y131176D01*
X99697Y131229D01*
X99741Y131280D01*
X99788Y131328D01*
X99837Y131374D01*
X99889Y131416D01*
X99944Y131456D01*
X100000Y131492D01*
X100059Y131525D01*
X100119Y131555D01*
X100181Y131581D01*
X100244Y131603D01*
X100309Y131622D01*
X100374Y131638D01*
X100440Y131649D01*
X100507Y131657D01*
X100574Y131661D01*
X100642Y131661D01*
X100709Y131657D01*
X100776Y131649D01*
X100842Y131638D01*
X100907Y131622D01*
X100972Y131603D01*
X101035Y131581D01*
X101097Y131555D01*
X101157Y131525D01*
X101216Y131492D01*
X101272Y131456D01*
X101327Y131416D01*
X101379Y131374D01*
X101428Y131328D01*
X101475Y131280D01*
X101519Y131229D01*
X101560Y131176D01*
X101598Y131120D01*
X101633Y131063D01*
X101664Y131003D01*
X101692Y130942D01*
X101717Y130880D01*
X101737Y130816D01*
X101754Y130751D01*
X101768Y130685D01*
X101777Y130618D01*
X101783Y130551D01*
X101785Y130484D01*
X101785Y129307D01*
X101785Y130719D02*
X103669Y131661D01*
X100373Y133765D02*
X99431Y134942D01*
X103669Y134942D01*
X103669Y133765D02*
X103669Y136119D01*
X169881Y139131D02*
X169881Y143369D01*
X171058Y143369D01*
X171124Y143367D01*
X171190Y143362D01*
X171255Y143352D01*
X171320Y143339D01*
X171384Y143323D01*
X171447Y143303D01*
X171508Y143279D01*
X171569Y143252D01*
X171627Y143222D01*
X171684Y143189D01*
X171739Y143152D01*
X171792Y143112D01*
X171842Y143070D01*
X171890Y143024D01*
X171936Y142976D01*
X171978Y142926D01*
X172018Y142873D01*
X172055Y142818D01*
X172088Y142761D01*
X172118Y142703D01*
X172145Y142642D01*
X172169Y142581D01*
X172189Y142518D01*
X172205Y142454D01*
X172218Y142389D01*
X172228Y142324D01*
X172233Y142258D01*
X172235Y142192D01*
X172235Y140308D01*
X172233Y140240D01*
X172227Y140171D01*
X172217Y140104D01*
X172203Y140037D01*
X172186Y139970D01*
X172164Y139905D01*
X172139Y139842D01*
X172110Y139780D01*
X172077Y139720D01*
X172041Y139661D01*
X172002Y139605D01*
X171960Y139551D01*
X171914Y139500D01*
X171866Y139452D01*
X171815Y139406D01*
X171761Y139364D01*
X171705Y139325D01*
X171647Y139289D01*
X171586Y139256D01*
X171524Y139227D01*
X171461Y139202D01*
X171396Y139180D01*
X171329Y139163D01*
X171262Y139149D01*
X171195Y139139D01*
X171126Y139133D01*
X171058Y139131D01*
X169881Y139131D01*
X174531Y142427D02*
X175708Y143369D01*
X175708Y139131D01*
X174531Y139131D02*
X176885Y139131D01*
X169881Y146131D02*
X169881Y150369D01*
X171058Y150369D01*
X171125Y150367D01*
X171192Y150361D01*
X171259Y150352D01*
X171325Y150338D01*
X171390Y150321D01*
X171454Y150301D01*
X171516Y150276D01*
X171577Y150248D01*
X171637Y150217D01*
X171694Y150182D01*
X171750Y150144D01*
X171803Y150103D01*
X171854Y150059D01*
X171902Y150012D01*
X171948Y149963D01*
X171990Y149911D01*
X172030Y149856D01*
X172066Y149800D01*
X172099Y149741D01*
X172129Y149681D01*
X172155Y149619D01*
X172177Y149556D01*
X172196Y149491D01*
X172212Y149426D01*
X172223Y149360D01*
X172231Y149293D01*
X172235Y149226D01*
X172235Y149158D01*
X172231Y149091D01*
X172223Y149024D01*
X172212Y148958D01*
X172196Y148893D01*
X172177Y148828D01*
X172155Y148765D01*
X172129Y148703D01*
X172099Y148643D01*
X172066Y148584D01*
X172030Y148528D01*
X171990Y148473D01*
X171948Y148421D01*
X171902Y148372D01*
X171854Y148325D01*
X171803Y148281D01*
X171750Y148240D01*
X171694Y148202D01*
X171637Y148167D01*
X171577Y148136D01*
X171516Y148108D01*
X171454Y148083D01*
X171390Y148063D01*
X171325Y148046D01*
X171259Y148032D01*
X171192Y148023D01*
X171125Y148017D01*
X171058Y148015D01*
X169881Y148015D01*
X171294Y148015D02*
X172235Y146131D01*
X174339Y147073D02*
X175281Y150369D01*
X174339Y147073D02*
X176693Y147073D01*
X175987Y148015D02*
X175987Y146131D01*
M02*
